solid OpenSCAD_Model
  facet normal 0.998795 0.0490722 0
    outer loop
      vertex 7 0 10
      vertex 6.96629 0.686119 0
      vertex 6.96629 0.686119 10
    endloop
  endfacet
  facet normal 0.998795 0.0490722 0
    outer loop
      vertex 6.96629 0.686119 0
      vertex 7 0 10
      vertex 7 0 0
    endloop
  endfacet
  facet normal -0.998795 0.0490722 0
    outer loop
      vertex -7 0 0
      vertex -6.96629 0.686119 10
      vertex -6.96629 0.686119 0
    endloop
  endfacet
  facet normal -0.998795 0.0490722 0
    outer loop
      vertex -6.96629 0.686119 10
      vertex -7 0 0
      vertex -7 0 10
    endloop
  endfacet
  facet normal 0.0490722 0.998795 -0
    outer loop
      vertex 0.686119 6.96629 0
      vertex 0 7 10
      vertex 0.686119 6.96629 10
    endloop
  endfacet
  facet normal 0.0490722 0.998795 0
    outer loop
      vertex 0 7 10
      vertex 0.686119 6.96629 0
      vertex 0 7 0
    endloop
  endfacet
  facet normal -0.0490722 -0.998795 0
    outer loop
      vertex -0.686119 -6.96629 0
      vertex 0 -7 10
      vertex -0.686119 -6.96629 10
    endloop
  endfacet
  facet normal -0.0490722 -0.998795 -0
    outer loop
      vertex 0 -7 10
      vertex -0.686119 -6.96629 0
      vertex 0 -7 0
    endloop
  endfacet
  facet normal 0.67155 0.740959 -0
    outer loop
      vertex 4.94975 4.94975 0
      vertex 4.44075 5.41107 10
      vertex 4.94975 4.94975 10
    endloop
  endfacet
  facet normal 0.67155 0.740959 0
    outer loop
      vertex 4.44075 5.41107 10
      vertex 4.94975 4.94975 0
      vertex 4.44075 5.41107 0
    endloop
  endfacet
  facet normal -0.67155 0.740959 0
    outer loop
      vertex -4.44075 5.41107 0
      vertex -4.94975 4.94975 10
      vertex -4.44075 5.41107 10
    endloop
  endfacet
  facet normal -0.67155 0.740959 0
    outer loop
      vertex -4.94975 4.94975 10
      vertex -4.44075 5.41107 0
      vertex -4.94975 4.94975 0
    endloop
  endfacet
  facet normal -0.336883 0.941546 0
    outer loop
      vertex -2.03199 6.69858 0
      vertex -2.67878 6.46716 10
      vertex -2.03199 6.69858 10
    endloop
  endfacet
  facet normal -0.336883 0.941546 0
    outer loop
      vertex -2.67878 6.46716 10
      vertex -2.03199 6.69858 0
      vertex -2.67878 6.46716 0
    endloop
  endfacet
  facet normal -0.970029 -0.242988 0
    outer loop
      vertex -6.69858 -2.03199 0
      vertex -6.8655 -1.36563 10
      vertex -6.8655 -1.36563 0
    endloop
  endfacet
  facet normal -0.970029 -0.242988 0
    outer loop
      vertex -6.8655 -1.36563 10
      vertex -6.69858 -2.03199 0
      vertex -6.69858 -2.03199 10
    endloop
  endfacet
  facet normal 0.90399 0.427554 0
    outer loop
      vertex 6.46716 2.67878 10
      vertex 6.17345 3.29978 0
      vertex 6.17345 3.29978 10
    endloop
  endfacet
  facet normal 0.90399 0.427554 0
    outer loop
      vertex 6.17345 3.29978 0
      vertex 6.46716 2.67878 10
      vertex 6.46716 2.67878 0
    endloop
  endfacet
  facet normal 0.427554 0.90399 -0
    outer loop
      vertex 3.29978 6.17345 0
      vertex 2.67878 6.46716 10
      vertex 3.29978 6.17345 10
    endloop
  endfacet
  facet normal 0.427554 0.90399 0
    outer loop
      vertex 2.67878 6.46716 10
      vertex 3.29978 6.17345 0
      vertex 2.67878 6.46716 0
    endloop
  endfacet
  facet normal 0.514104 0.857728 -0
    outer loop
      vertex 3.88899 5.82029 0
      vertex 3.29978 6.17345 10
      vertex 3.88899 5.82029 10
    endloop
  endfacet
  facet normal 0.514104 0.857728 0
    outer loop
      vertex 3.29978 6.17345 10
      vertex 3.88899 5.82029 0
      vertex 3.29978 6.17345 0
    endloop
  endfacet
  facet normal -0.857728 0.514104 0
    outer loop
      vertex -6.17345 3.29978 0
      vertex -5.82029 3.88899 10
      vertex -5.82029 3.88899 0
    endloop
  endfacet
  facet normal -0.857728 0.514104 0
    outer loop
      vertex -5.82029 3.88899 10
      vertex -6.17345 3.29978 0
      vertex -6.17345 3.29978 10
    endloop
  endfacet
  facet normal -0.803203 0.595706 0
    outer loop
      vertex -5.82029 3.88899 0
      vertex -5.41107 4.44075 10
      vertex -5.41107 4.44075 0
    endloop
  endfacet
  facet normal -0.803203 0.595706 0
    outer loop
      vertex -5.41107 4.44075 10
      vertex -5.82029 3.88899 0
      vertex -5.82029 3.88899 10
    endloop
  endfacet
  facet normal -0.146722 0.989178 0
    outer loop
      vertex -0.686119 6.96629 0
      vertex -1.36563 6.8655 10
      vertex -0.686119 6.96629 10
    endloop
  endfacet
  facet normal -0.146722 0.989178 0
    outer loop
      vertex -1.36563 6.8655 10
      vertex -0.686119 6.96629 0
      vertex -1.36563 6.8655 0
    endloop
  endfacet
  facet normal 0.90399 -0.427554 0
    outer loop
      vertex 6.17345 -3.29978 10
      vertex 6.46716 -2.67878 0
      vertex 6.46716 -2.67878 10
    endloop
  endfacet
  facet normal 0.90399 -0.427554 0
    outer loop
      vertex 6.46716 -2.67878 0
      vertex 6.17345 -3.29978 10
      vertex 6.17345 -3.29978 0
    endloop
  endfacet
  facet normal 0.242988 -0.970029 0
    outer loop
      vertex 1.36563 -6.8655 0
      vertex 2.03199 -6.69858 10
      vertex 1.36563 -6.8655 10
    endloop
  endfacet
  facet normal 0.242988 -0.970029 0
    outer loop
      vertex 2.03199 -6.69858 10
      vertex 1.36563 -6.8655 0
      vertex 2.03199 -6.69858 0
    endloop
  endfacet
  facet normal 0.740959 -0.67155 0
    outer loop
      vertex 4.94975 -4.94975 10
      vertex 5.41107 -4.44075 0
      vertex 5.41107 -4.44075 10
    endloop
  endfacet
  facet normal 0.740959 -0.67155 0
    outer loop
      vertex 5.41107 -4.44075 0
      vertex 4.94975 -4.94975 10
      vertex 4.94975 -4.94975 0
    endloop
  endfacet
  facet normal 0.970029 -0.242988 0
    outer loop
      vertex 6.69858 -2.03199 10
      vertex 6.8655 -1.36563 0
      vertex 6.8655 -1.36563 10
    endloop
  endfacet
  facet normal 0.970029 -0.242988 0
    outer loop
      vertex 6.8655 -1.36563 0
      vertex 6.69858 -2.03199 10
      vertex 6.69858 -2.03199 0
    endloop
  endfacet
  facet normal -0.336883 -0.941546 0
    outer loop
      vertex -2.67878 -6.46716 0
      vertex -2.03199 -6.69858 10
      vertex -2.67878 -6.46716 10
    endloop
  endfacet
  facet normal -0.336883 -0.941546 -0
    outer loop
      vertex -2.03199 -6.69858 10
      vertex -2.67878 -6.46716 0
      vertex -2.03199 -6.69858 0
    endloop
  endfacet
  facet normal -0.740959 -0.67155 0
    outer loop
      vertex -4.94975 -4.94975 0
      vertex -5.41107 -4.44075 10
      vertex -5.41107 -4.44075 0
    endloop
  endfacet
  facet normal -0.740959 -0.67155 0
    outer loop
      vertex -5.41107 -4.44075 10
      vertex -4.94975 -4.94975 0
      vertex -4.94975 -4.94975 10
    endloop
  endfacet
  facet normal -0.803203 -0.595706 0
    outer loop
      vertex -5.41107 -4.44075 0
      vertex -5.82029 -3.88899 10
      vertex -5.82029 -3.88899 0
    endloop
  endfacet
  facet normal -0.803203 -0.595706 0
    outer loop
      vertex -5.82029 -3.88899 10
      vertex -5.41107 -4.44075 0
      vertex -5.41107 -4.44075 10
    endloop
  endfacet
  facet normal 0 0 -1
    outer loop
      vertex 4.15 0 0
      vertex 7 0 0
      vertex 6.96629 -0.686119 0
    endloop
  endfacet
  facet normal 0 0 -1
    outer loop
      vertex 4.13002 -0.406771 0
      vertex 6.96629 -0.686119 0
      vertex 6.8655 -1.36563 0
    endloop
  endfacet
  facet normal 0 0 -1
    outer loop
      vertex 7 0 0
      vertex 4.15 0 0
      vertex 6.96629 0.686119 0
    endloop
  endfacet
  facet normal 0 0 -1
    outer loop
      vertex 4.07026 -0.809625 0
      vertex 6.8655 -1.36563 0
      vertex 6.69858 -2.03199 0
    endloop
  endfacet
  facet normal 0 0 -1
    outer loop
      vertex 4.13002 0.406771 0
      vertex 6.96629 0.686119 0
      vertex 4.15 0 0
    endloop
  endfacet
  facet normal 0 0 -1
    outer loop
      vertex 3.9713 -1.20468 0
      vertex 6.69858 -2.03199 0
      vertex 6.46716 -2.67878 0
    endloop
  endfacet
  facet normal -0 0 -1
    outer loop
      vertex 6.96629 0.686119 0
      vertex 4.13002 0.406771 0
      vertex 6.8655 1.36563 0
    endloop
  endfacet
  facet normal 0 0 -1
    outer loop
      vertex 3.8341 -1.58814 0
      vertex 6.46716 -2.67878 0
      vertex 6.17345 -3.29978 0
    endloop
  endfacet
  facet normal 0 0 -1
    outer loop
      vertex 4.07026 0.809625 0
      vertex 6.8655 1.36563 0
      vertex 4.13002 0.406771 0
    endloop
  endfacet
  facet normal 0 0 -1
    outer loop
      vertex 3.65997 -1.9563 0
      vertex 6.17345 -3.29978 0
      vertex 5.82029 -3.88899 0
    endloop
  endfacet
  facet normal -0 0 -1
    outer loop
      vertex 6.8655 1.36563 0
      vertex 4.07026 0.809625 0
      vertex 6.69858 2.03199 0
    endloop
  endfacet
  facet normal 0 0 -1
    outer loop
      vertex 3.4506 -2.30562 0
      vertex 5.82029 -3.88899 0
      vertex 5.41107 -4.44075 0
    endloop
  endfacet
  facet normal 0 0 -1
    outer loop
      vertex 3.9713 1.20468 0
      vertex 6.69858 2.03199 0
      vertex 4.07026 0.809625 0
    endloop
  endfacet
  facet normal 0 0 -1
    outer loop
      vertex 3.20799 -2.63273 0
      vertex 5.41107 -4.44075 0
      vertex 4.94975 -4.94975 0
    endloop
  endfacet
  facet normal -0 0 -1
    outer loop
      vertex 6.69858 2.03199 0
      vertex 3.9713 1.20468 0
      vertex 6.46716 2.67878 0
    endloop
  endfacet
  facet normal 0 0 -1
    outer loop
      vertex 2.93449 -2.93449 0
      vertex 4.94975 -4.94975 0
      vertex 4.44075 -5.41107 0
    endloop
  endfacet
  facet normal 0 0 -1
    outer loop
      vertex 3.8341 1.58814 0
      vertex 6.46716 2.67878 0
      vertex 3.9713 1.20468 0
    endloop
  endfacet
  facet normal -0 0 -1
    outer loop
      vertex 6.46716 2.67878 0
      vertex 3.8341 1.58814 0
      vertex 6.17345 3.29978 0
    endloop
  endfacet
  facet normal 0 0 -1
    outer loop
      vertex 6.96629 -0.686119 0
      vertex 4.13002 -0.406771 0
      vertex 4.15 0 0
    endloop
  endfacet
  facet normal 0 0 -1
    outer loop
      vertex 6.8655 -1.36563 0
      vertex 4.07026 -0.809625 0
      vertex 4.13002 -0.406771 0
    endloop
  endfacet
  facet normal 0 0 -1
    outer loop
      vertex 6.69858 -2.03199 0
      vertex 3.9713 -1.20468 0
      vertex 4.07026 -0.809625 0
    endloop
  endfacet
  facet normal 0 0 -1
    outer loop
      vertex 2.63273 -3.20799 0
      vertex 4.44075 -5.41107 0
      vertex 3.88899 -5.82029 0
    endloop
  endfacet
  facet normal 0 0 -1
    outer loop
      vertex 6.46716 -2.67878 0
      vertex 3.8341 -1.58814 0
      vertex 3.9713 -1.20468 0
    endloop
  endfacet
  facet normal 0 0 -1
    outer loop
      vertex 6.17345 -3.29978 0
      vertex 3.65997 -1.9563 0
      vertex 3.8341 -1.58814 0
    endloop
  endfacet
  facet normal 0 0 -1
    outer loop
      vertex 5.82029 -3.88899 0
      vertex 3.4506 -2.30562 0
      vertex 3.65997 -1.9563 0
    endloop
  endfacet
  facet normal 0 0 -1
    outer loop
      vertex 2.30562 -3.4506 0
      vertex 3.88899 -5.82029 0
      vertex 3.29978 -6.17345 0
    endloop
  endfacet
  facet normal 0 0 -1
    outer loop
      vertex 5.41107 -4.44075 0
      vertex 3.20799 -2.63273 0
      vertex 3.4506 -2.30562 0
    endloop
  endfacet
  facet normal 0 0 -1
    outer loop
      vertex 4.94975 -4.94975 0
      vertex 2.93449 -2.93449 0
      vertex 3.20799 -2.63273 0
    endloop
  endfacet
  facet normal 0 0 -1
    outer loop
      vertex 1.9563 -3.65997 0
      vertex 3.29978 -6.17345 0
      vertex 2.67878 -6.46716 0
    endloop
  endfacet
  facet normal 0 0 -1
    outer loop
      vertex 4.44075 -5.41107 0
      vertex 2.63273 -3.20799 0
      vertex 2.93449 -2.93449 0
    endloop
  endfacet
  facet normal 0 0 -1
    outer loop
      vertex 3.88899 -5.82029 0
      vertex 2.30562 -3.4506 0
      vertex 2.63273 -3.20799 0
    endloop
  endfacet
  facet normal 0 0 -1
    outer loop
      vertex 1.58814 -3.8341 0
      vertex 2.67878 -6.46716 0
      vertex 2.03199 -6.69858 0
    endloop
  endfacet
  facet normal 0 0 -1
    outer loop
      vertex 3.29978 -6.17345 0
      vertex 1.9563 -3.65997 0
      vertex 2.30562 -3.4506 0
    endloop
  endfacet
  facet normal 0 0 -1
    outer loop
      vertex 2.67878 -6.46716 0
      vertex 1.58814 -3.8341 0
      vertex 1.9563 -3.65997 0
    endloop
  endfacet
  facet normal 0 0 -1
    outer loop
      vertex 1.20468 -3.9713 0
      vertex 2.03199 -6.69858 0
      vertex 1.36563 -6.8655 0
    endloop
  endfacet
  facet normal 0 0 -1
    outer loop
      vertex 2.03199 -6.69858 0
      vertex 1.20468 -3.9713 0
      vertex 1.58814 -3.8341 0
    endloop
  endfacet
  facet normal 0 0 -1
    outer loop
      vertex 1.36563 -6.8655 0
      vertex 0.809625 -4.07026 0
      vertex 1.20468 -3.9713 0
    endloop
  endfacet
  facet normal 0 0 -1
    outer loop
      vertex 0.686119 -6.96629 0
      vertex 0.809625 -4.07026 0
      vertex 1.36563 -6.8655 0
    endloop
  endfacet
  facet normal 0 0 -1
    outer loop
      vertex 0.686119 -6.96629 0
      vertex 0.406771 -4.13002 0
      vertex 0.809625 -4.07026 0
    endloop
  endfacet
  facet normal 0 0 -1
    outer loop
      vertex 0 -7 0
      vertex 0.406771 -4.13002 0
      vertex 0.686119 -6.96629 0
    endloop
  endfacet
  facet normal 0 0 -1
    outer loop
      vertex 0 -7 0
      vertex 0 -4.15 0
      vertex 0.406771 -4.13002 0
    endloop
  endfacet
  facet normal 0 0 -1
    outer loop
      vertex 0 -7 0
      vertex -0.406771 -4.13002 0
      vertex 0 -4.15 0
    endloop
  endfacet
  facet normal 0 0 -1
    outer loop
      vertex -0.686119 -6.96629 0
      vertex -0.406771 -4.13002 0
      vertex 0 -7 0
    endloop
  endfacet
  facet normal 0 0 -1
    outer loop
      vertex -0.686119 -6.96629 0
      vertex -0.809625 -4.07026 0
      vertex -0.406771 -4.13002 0
    endloop
  endfacet
  facet normal 0 0 -1
    outer loop
      vertex -1.36563 -6.8655 0
      vertex -0.809625 -4.07026 0
      vertex -0.686119 -6.96629 0
    endloop
  endfacet
  facet normal -0 0 -1
    outer loop
      vertex -0.809625 -4.07026 0
      vertex -1.36563 -6.8655 0
      vertex -1.20468 -3.9713 0
    endloop
  endfacet
  facet normal 0 0 -1
    outer loop
      vertex -2.03199 -6.69858 0
      vertex -1.20468 -3.9713 0
      vertex -1.36563 -6.8655 0
    endloop
  endfacet
  facet normal -0 0 -1
    outer loop
      vertex -1.20468 -3.9713 0
      vertex -2.03199 -6.69858 0
      vertex -1.58814 -3.8341 0
    endloop
  endfacet
  facet normal 0 0 -1
    outer loop
      vertex -2.67878 -6.46716 0
      vertex -1.58814 -3.8341 0
      vertex -2.03199 -6.69858 0
    endloop
  endfacet
  facet normal -0 0 -1
    outer loop
      vertex -1.58814 -3.8341 0
      vertex -2.67878 -6.46716 0
      vertex -1.9563 -3.65997 0
    endloop
  endfacet
  facet normal 0 0 -1
    outer loop
      vertex -3.29978 -6.17345 0
      vertex -1.9563 -3.65997 0
      vertex -2.67878 -6.46716 0
    endloop
  endfacet
  facet normal -0 0 -1
    outer loop
      vertex -1.9563 -3.65997 0
      vertex -3.29978 -6.17345 0
      vertex -2.30562 -3.4506 0
    endloop
  endfacet
  facet normal 0 0 -1
    outer loop
      vertex -3.88899 -5.82029 0
      vertex -2.30562 -3.4506 0
      vertex -3.29978 -6.17345 0
    endloop
  endfacet
  facet normal -0 0 -1
    outer loop
      vertex -2.30562 -3.4506 0
      vertex -3.88899 -5.82029 0
      vertex -2.63273 -3.20799 0
    endloop
  endfacet
  facet normal 0 0 -1
    outer loop
      vertex -4.44075 -5.41107 0
      vertex -2.63273 -3.20799 0
      vertex -3.88899 -5.82029 0
    endloop
  endfacet
  facet normal -0 0 -1
    outer loop
      vertex -2.63273 -3.20799 0
      vertex -4.44075 -5.41107 0
      vertex -2.93449 -2.93449 0
    endloop
  endfacet
  facet normal 0 0 -1
    outer loop
      vertex -4.94975 -4.94975 0
      vertex -2.93449 -2.93449 0
      vertex -4.44075 -5.41107 0
    endloop
  endfacet
  facet normal -0 0 -1
    outer loop
      vertex -2.93449 -2.93449 0
      vertex -4.94975 -4.94975 0
      vertex -3.20799 -2.63273 0
    endloop
  endfacet
  facet normal 0 0 -1
    outer loop
      vertex -5.41107 -4.44075 0
      vertex -3.20799 -2.63273 0
      vertex -4.94975 -4.94975 0
    endloop
  endfacet
  facet normal -0 0 -1
    outer loop
      vertex -3.20799 -2.63273 0
      vertex -5.41107 -4.44075 0
      vertex -3.4506 -2.30562 0
    endloop
  endfacet
  facet normal 0 0 -1
    outer loop
      vertex -5.82029 -3.88899 0
      vertex -3.4506 -2.30562 0
      vertex -5.41107 -4.44075 0
    endloop
  endfacet
  facet normal -0 0 -1
    outer loop
      vertex -3.4506 -2.30562 0
      vertex -5.82029 -3.88899 0
      vertex -3.65997 -1.9563 0
    endloop
  endfacet
  facet normal 0 0 -1
    outer loop
      vertex -6.17345 -3.29978 0
      vertex -3.65997 -1.9563 0
      vertex -5.82029 -3.88899 0
    endloop
  endfacet
  facet normal -0 0 -1
    outer loop
      vertex -3.65997 -1.9563 0
      vertex -6.17345 -3.29978 0
      vertex -3.8341 -1.58814 0
    endloop
  endfacet
  facet normal 0 0 -1
    outer loop
      vertex 3.65997 1.9563 0
      vertex 6.17345 3.29978 0
      vertex 3.8341 1.58814 0
    endloop
  endfacet
  facet normal -0 0 -1
    outer loop
      vertex 6.17345 3.29978 0
      vertex 3.65997 1.9563 0
      vertex 5.82029 3.88899 0
    endloop
  endfacet
  facet normal 0 0 -1
    outer loop
      vertex 3.4506 2.30562 0
      vertex 5.82029 3.88899 0
      vertex 3.65997 1.9563 0
    endloop
  endfacet
  facet normal -0 0 -1
    outer loop
      vertex 5.82029 3.88899 0
      vertex 3.4506 2.30562 0
      vertex 5.41107 4.44075 0
    endloop
  endfacet
  facet normal 0 0 -1
    outer loop
      vertex 3.20799 2.63273 0
      vertex 5.41107 4.44075 0
      vertex 3.4506 2.30562 0
    endloop
  endfacet
  facet normal -0 0 -1
    outer loop
      vertex 5.41107 4.44075 0
      vertex 3.20799 2.63273 0
      vertex 4.94975 4.94975 0
    endloop
  endfacet
  facet normal 0 0 -1
    outer loop
      vertex 2.93449 2.93449 0
      vertex 4.94975 4.94975 0
      vertex 3.20799 2.63273 0
    endloop
  endfacet
  facet normal -0 0 -1
    outer loop
      vertex 4.94975 4.94975 0
      vertex 2.93449 2.93449 0
      vertex 4.44075 5.41107 0
    endloop
  endfacet
  facet normal 0 0 -1
    outer loop
      vertex 2.63273 3.20799 0
      vertex 4.44075 5.41107 0
      vertex 2.93449 2.93449 0
    endloop
  endfacet
  facet normal -0 0 -1
    outer loop
      vertex 4.44075 5.41107 0
      vertex 2.63273 3.20799 0
      vertex 3.88899 5.82029 0
    endloop
  endfacet
  facet normal 0 0 -1
    outer loop
      vertex 2.30562 3.4506 0
      vertex 3.88899 5.82029 0
      vertex 2.63273 3.20799 0
    endloop
  endfacet
  facet normal -0 0 -1
    outer loop
      vertex 3.88899 5.82029 0
      vertex 2.30562 3.4506 0
      vertex 3.29978 6.17345 0
    endloop
  endfacet
  facet normal 0 0 -1
    outer loop
      vertex 1.9563 3.65997 0
      vertex 3.29978 6.17345 0
      vertex 2.30562 3.4506 0
    endloop
  endfacet
  facet normal -0 0 -1
    outer loop
      vertex 3.29978 6.17345 0
      vertex 1.9563 3.65997 0
      vertex 2.67878 6.46716 0
    endloop
  endfacet
  facet normal 0 0 -1
    outer loop
      vertex 1.58814 3.8341 0
      vertex 2.67878 6.46716 0
      vertex 1.9563 3.65997 0
    endloop
  endfacet
  facet normal -0 0 -1
    outer loop
      vertex 2.67878 6.46716 0
      vertex 1.58814 3.8341 0
      vertex 2.03199 6.69858 0
    endloop
  endfacet
  facet normal 0 0 -1
    outer loop
      vertex 1.20468 3.9713 0
      vertex 2.03199 6.69858 0
      vertex 1.58814 3.8341 0
    endloop
  endfacet
  facet normal -0 0 -1
    outer loop
      vertex 2.03199 6.69858 0
      vertex 1.20468 3.9713 0
      vertex 1.36563 6.8655 0
    endloop
  endfacet
  facet normal 0 0 -1
    outer loop
      vertex 0.809625 4.07026 0
      vertex 1.36563 6.8655 0
      vertex 1.20468 3.9713 0
    endloop
  endfacet
  facet normal 0 0 -1
    outer loop
      vertex 0.809625 4.07026 0
      vertex 0.686119 6.96629 0
      vertex 1.36563 6.8655 0
    endloop
  endfacet
  facet normal 0 0 -1
    outer loop
      vertex 0.406771 4.13002 0
      vertex 0.686119 6.96629 0
      vertex 0.809625 4.07026 0
    endloop
  endfacet
  facet normal 0 0 -1
    outer loop
      vertex 0 4.15 0
      vertex 0.686119 6.96629 0
      vertex 0.406771 4.13002 0
    endloop
  endfacet
  facet normal 0 0 -1
    outer loop
      vertex 0 4.15 0
      vertex 0 7 0
      vertex 0.686119 6.96629 0
    endloop
  endfacet
  facet normal 0 0 -1
    outer loop
      vertex -0.406771 4.13002 0
      vertex 0 7 0
      vertex 0 4.15 0
    endloop
  endfacet
  facet normal 0 0 -1
    outer loop
      vertex -0.406771 4.13002 0
      vertex -0.686119 6.96629 0
      vertex 0 7 0
    endloop
  endfacet
  facet normal 0 0 -1
    outer loop
      vertex -0.809625 4.07026 0
      vertex -0.686119 6.96629 0
      vertex -0.406771 4.13002 0
    endloop
  endfacet
  facet normal 0 0 -1
    outer loop
      vertex -1.36563 6.8655 0
      vertex -0.809625 4.07026 0
      vertex -1.20468 3.9713 0
    endloop
  endfacet
  facet normal 0 0 -1
    outer loop
      vertex -0.809625 4.07026 0
      vertex -1.36563 6.8655 0
      vertex -0.686119 6.96629 0
    endloop
  endfacet
  facet normal 0 0 -1
    outer loop
      vertex -2.03199 6.69858 0
      vertex -1.20468 3.9713 0
      vertex -1.58814 3.8341 0
    endloop
  endfacet
  facet normal 0 0 -1
    outer loop
      vertex -2.67878 6.46716 0
      vertex -1.58814 3.8341 0
      vertex -1.9563 3.65997 0
    endloop
  endfacet
  facet normal 0 0 -1
    outer loop
      vertex -1.20468 3.9713 0
      vertex -2.03199 6.69858 0
      vertex -1.36563 6.8655 0
    endloop
  endfacet
  facet normal 0 0 -1
    outer loop
      vertex -3.29978 6.17345 0
      vertex -1.9563 3.65997 0
      vertex -2.30562 3.4506 0
    endloop
  endfacet
  facet normal 0 0 -1
    outer loop
      vertex -3.88899 5.82029 0
      vertex -2.30562 3.4506 0
      vertex -2.63273 3.20799 0
    endloop
  endfacet
  facet normal 0 0 -1
    outer loop
      vertex -1.58814 3.8341 0
      vertex -2.67878 6.46716 0
      vertex -2.03199 6.69858 0
    endloop
  endfacet
  facet normal 0 0 -1
    outer loop
      vertex -4.44075 5.41107 0
      vertex -2.63273 3.20799 0
      vertex -2.93449 2.93449 0
    endloop
  endfacet
  facet normal 0 0 -1
    outer loop
      vertex -4.94975 4.94975 0
      vertex -2.93449 2.93449 0
      vertex -3.20799 2.63273 0
    endloop
  endfacet
  facet normal 0 0 -1
    outer loop
      vertex -1.9563 3.65997 0
      vertex -3.29978 6.17345 0
      vertex -2.67878 6.46716 0
    endloop
  endfacet
  facet normal 0 0 -1
    outer loop
      vertex -5.41107 4.44075 0
      vertex -3.20799 2.63273 0
      vertex -3.4506 2.30562 0
    endloop
  endfacet
  facet normal 0 0 -1
    outer loop
      vertex -5.82029 3.88899 0
      vertex -3.4506 2.30562 0
      vertex -3.65997 1.9563 0
    endloop
  endfacet
  facet normal 0 0 -1
    outer loop
      vertex -6.17345 3.29978 0
      vertex -3.65997 1.9563 0
      vertex -3.8341 1.58814 0
    endloop
  endfacet
  facet normal 0 0 -1
    outer loop
      vertex -2.30562 3.4506 0
      vertex -3.88899 5.82029 0
      vertex -3.29978 6.17345 0
    endloop
  endfacet
  facet normal 0 0 -1
    outer loop
      vertex -6.46716 2.67878 0
      vertex -3.8341 1.58814 0
      vertex -3.9713 1.20468 0
    endloop
  endfacet
  facet normal 0 0 -1
    outer loop
      vertex -6.69858 2.03199 0
      vertex -3.9713 1.20468 0
      vertex -4.07026 0.809625 0
    endloop
  endfacet
  facet normal 0 0 -1
    outer loop
      vertex -6.8655 1.36563 0
      vertex -4.07026 0.809625 0
      vertex -4.13002 0.406771 0
    endloop
  endfacet
  facet normal 0 0 -1
    outer loop
      vertex -6.96629 0.686119 0
      vertex -4.13002 0.406771 0
      vertex -4.15 0 0
    endloop
  endfacet
  facet normal 0 0 -1
    outer loop
      vertex -6.46716 -2.67878 0
      vertex -3.8341 -1.58814 0
      vertex -6.17345 -3.29978 0
    endloop
  endfacet
  facet normal 0 0 -1
    outer loop
      vertex -2.63273 3.20799 0
      vertex -4.44075 5.41107 0
      vertex -3.88899 5.82029 0
    endloop
  endfacet
  facet normal -0 0 -1
    outer loop
      vertex -3.8341 -1.58814 0
      vertex -6.46716 -2.67878 0
      vertex -3.9713 -1.20468 0
    endloop
  endfacet
  facet normal 0 0 -1
    outer loop
      vertex -2.93449 2.93449 0
      vertex -4.94975 4.94975 0
      vertex -4.44075 5.41107 0
    endloop
  endfacet
  facet normal 0 0 -1
    outer loop
      vertex -6.69858 -2.03199 0
      vertex -3.9713 -1.20468 0
      vertex -6.46716 -2.67878 0
    endloop
  endfacet
  facet normal 0 0 -1
    outer loop
      vertex -3.20799 2.63273 0
      vertex -5.41107 4.44075 0
      vertex -4.94975 4.94975 0
    endloop
  endfacet
  facet normal -0 0 -1
    outer loop
      vertex -3.9713 -1.20468 0
      vertex -6.69858 -2.03199 0
      vertex -4.07026 -0.809625 0
    endloop
  endfacet
  facet normal 0 0 -1
    outer loop
      vertex -3.4506 2.30562 0
      vertex -5.82029 3.88899 0
      vertex -5.41107 4.44075 0
    endloop
  endfacet
  facet normal 0 0 -1
    outer loop
      vertex -6.8655 -1.36563 0
      vertex -4.07026 -0.809625 0
      vertex -6.69858 -2.03199 0
    endloop
  endfacet
  facet normal 0 0 -1
    outer loop
      vertex -3.65997 1.9563 0
      vertex -6.17345 3.29978 0
      vertex -5.82029 3.88899 0
    endloop
  endfacet
  facet normal -0 0 -1
    outer loop
      vertex -4.07026 -0.809625 0
      vertex -6.8655 -1.36563 0
      vertex -4.13002 -0.406771 0
    endloop
  endfacet
  facet normal 0 0 -1
    outer loop
      vertex -3.8341 1.58814 0
      vertex -6.46716 2.67878 0
      vertex -6.17345 3.29978 0
    endloop
  endfacet
  facet normal 0 0 -1
    outer loop
      vertex -6.96629 -0.686119 0
      vertex -4.13002 -0.406771 0
      vertex -6.8655 -1.36563 0
    endloop
  endfacet
  facet normal 0 0 -1
    outer loop
      vertex -3.9713 1.20468 0
      vertex -6.69858 2.03199 0
      vertex -6.46716 2.67878 0
    endloop
  endfacet
  facet normal -0 0 -1
    outer loop
      vertex -4.13002 -0.406771 0
      vertex -6.96629 -0.686119 0
      vertex -4.15 0 0
    endloop
  endfacet
  facet normal 0 0 -1
    outer loop
      vertex -4.07026 0.809625 0
      vertex -6.8655 1.36563 0
      vertex -6.69858 2.03199 0
    endloop
  endfacet
  facet normal 0 0 -1
    outer loop
      vertex -7 0 0
      vertex -4.15 0 0
      vertex -6.96629 -0.686119 0
    endloop
  endfacet
  facet normal 0 0 -1
    outer loop
      vertex -4.13002 0.406771 0
      vertex -6.96629 0.686119 0
      vertex -6.8655 1.36563 0
    endloop
  endfacet
  facet normal 0 0 -1
    outer loop
      vertex -4.15 0 0
      vertex -7 0 0
      vertex -6.96629 0.686119 0
    endloop
  endfacet
  facet normal 0.970029 0.242988 0
    outer loop
      vertex 6.8655 1.36563 10
      vertex 6.69858 2.03199 0
      vertex 6.69858 2.03199 10
    endloop
  endfacet
  facet normal 0.970029 0.242988 0
    outer loop
      vertex 6.69858 2.03199 0
      vertex 6.8655 1.36563 10
      vertex 6.8655 1.36563 0
    endloop
  endfacet
  facet normal 0.989178 0.146722 0
    outer loop
      vertex 6.96629 0.686119 10
      vertex 6.8655 1.36563 0
      vertex 6.8655 1.36563 10
    endloop
  endfacet
  facet normal 0.989178 0.146722 0
    outer loop
      vertex 6.8655 1.36563 0
      vertex 6.96629 0.686119 10
      vertex 6.96629 0.686119 0
    endloop
  endfacet
  facet normal 0.941546 0.336883 0
    outer loop
      vertex 6.69858 2.03199 10
      vertex 6.46716 2.67878 0
      vertex 6.46716 2.67878 10
    endloop
  endfacet
  facet normal 0.941546 0.336883 0
    outer loop
      vertex 6.46716 2.67878 0
      vertex 6.69858 2.03199 10
      vertex 6.69858 2.03199 0
    endloop
  endfacet
  facet normal 0.803203 0.595706 0
    outer loop
      vertex 5.82029 3.88899 10
      vertex 5.41107 4.44075 0
      vertex 5.41107 4.44075 10
    endloop
  endfacet
  facet normal 0.803203 0.595706 0
    outer loop
      vertex 5.41107 4.44075 0
      vertex 5.82029 3.88899 10
      vertex 5.82029 3.88899 0
    endloop
  endfacet
  facet normal 0.857728 0.514104 0
    outer loop
      vertex 6.17345 3.29978 10
      vertex 5.82029 3.88899 0
      vertex 5.82029 3.88899 10
    endloop
  endfacet
  facet normal 0.857728 0.514104 0
    outer loop
      vertex 5.82029 3.88899 0
      vertex 6.17345 3.29978 10
      vertex 6.17345 3.29978 0
    endloop
  endfacet
  facet normal 0.242988 0.970029 -0
    outer loop
      vertex 2.03199 6.69858 0
      vertex 1.36563 6.8655 10
      vertex 2.03199 6.69858 10
    endloop
  endfacet
  facet normal 0.242988 0.970029 0
    outer loop
      vertex 1.36563 6.8655 10
      vertex 2.03199 6.69858 0
      vertex 1.36563 6.8655 0
    endloop
  endfacet
  facet normal 0.336883 0.941546 -0
    outer loop
      vertex 2.67878 6.46716 0
      vertex 2.03199 6.69858 10
      vertex 2.67878 6.46716 10
    endloop
  endfacet
  facet normal 0.336883 0.941546 0
    outer loop
      vertex 2.03199 6.69858 10
      vertex 2.67878 6.46716 0
      vertex 2.03199 6.69858 0
    endloop
  endfacet
  facet normal 0.146722 0.989178 -0
    outer loop
      vertex 1.36563 6.8655 0
      vertex 0.686119 6.96629 10
      vertex 1.36563 6.8655 10
    endloop
  endfacet
  facet normal 0.146722 0.989178 0
    outer loop
      vertex 0.686119 6.96629 10
      vertex 1.36563 6.8655 0
      vertex 0.686119 6.96629 0
    endloop
  endfacet
  facet normal 0.595706 0.803203 -0
    outer loop
      vertex 4.44075 5.41107 0
      vertex 3.88899 5.82029 10
      vertex 4.44075 5.41107 10
    endloop
  endfacet
  facet normal 0.595706 0.803203 0
    outer loop
      vertex 3.88899 5.82029 10
      vertex 4.44075 5.41107 0
      vertex 3.88899 5.82029 0
    endloop
  endfacet
  facet normal -0.970029 0.242988 0
    outer loop
      vertex -6.8655 1.36563 0
      vertex -6.69858 2.03199 10
      vertex -6.69858 2.03199 0
    endloop
  endfacet
  facet normal -0.970029 0.242988 0
    outer loop
      vertex -6.69858 2.03199 10
      vertex -6.8655 1.36563 0
      vertex -6.8655 1.36563 10
    endloop
  endfacet
  facet normal -0.90399 0.427554 0
    outer loop
      vertex -6.46716 2.67878 0
      vertex -6.17345 3.29978 10
      vertex -6.17345 3.29978 0
    endloop
  endfacet
  facet normal -0.90399 0.427554 0
    outer loop
      vertex -6.17345 3.29978 10
      vertex -6.46716 2.67878 0
      vertex -6.46716 2.67878 10
    endloop
  endfacet
  facet normal -0.989178 0.146722 0
    outer loop
      vertex -6.96629 0.686119 0
      vertex -6.8655 1.36563 10
      vertex -6.8655 1.36563 0
    endloop
  endfacet
  facet normal -0.989178 0.146722 0
    outer loop
      vertex -6.8655 1.36563 10
      vertex -6.96629 0.686119 0
      vertex -6.96629 0.686119 10
    endloop
  endfacet
  facet normal -0.514104 0.857728 0
    outer loop
      vertex -3.29978 6.17345 0
      vertex -3.88899 5.82029 10
      vertex -3.29978 6.17345 10
    endloop
  endfacet
  facet normal -0.514104 0.857728 0
    outer loop
      vertex -3.88899 5.82029 10
      vertex -3.29978 6.17345 0
      vertex -3.88899 5.82029 0
    endloop
  endfacet
  facet normal -0.0490722 0.998795 0
    outer loop
      vertex 0 7 0
      vertex -0.686119 6.96629 10
      vertex 0 7 10
    endloop
  endfacet
  facet normal -0.0490722 0.998795 0
    outer loop
      vertex -0.686119 6.96629 10
      vertex 0 7 0
      vertex -0.686119 6.96629 0
    endloop
  endfacet
  facet normal 0.998795 -0.0490722 0
    outer loop
      vertex 6.96629 -0.686119 10
      vertex 7 0 0
      vertex 7 0 10
    endloop
  endfacet
  facet normal 0.998795 -0.0490722 0
    outer loop
      vertex 7 0 0
      vertex 6.96629 -0.686119 10
      vertex 6.96629 -0.686119 0
    endloop
  endfacet
  facet normal 0.0490722 -0.998795 0
    outer loop
      vertex 0 -7 0
      vertex 0.686119 -6.96629 10
      vertex 0 -7 10
    endloop
  endfacet
  facet normal 0.0490722 -0.998795 0
    outer loop
      vertex 0.686119 -6.96629 10
      vertex 0 -7 0
      vertex 0.686119 -6.96629 0
    endloop
  endfacet
  facet normal 0.514104 -0.857728 0
    outer loop
      vertex 3.29978 -6.17345 0
      vertex 3.88899 -5.82029 10
      vertex 3.29978 -6.17345 10
    endloop
  endfacet
  facet normal 0.514104 -0.857728 0
    outer loop
      vertex 3.88899 -5.82029 10
      vertex 3.29978 -6.17345 0
      vertex 3.88899 -5.82029 0
    endloop
  endfacet
  facet normal 0.67155 -0.740959 0
    outer loop
      vertex 4.44075 -5.41107 0
      vertex 4.94975 -4.94975 10
      vertex 4.44075 -5.41107 10
    endloop
  endfacet
  facet normal 0.67155 -0.740959 0
    outer loop
      vertex 4.94975 -4.94975 10
      vertex 4.44075 -5.41107 0
      vertex 4.94975 -4.94975 0
    endloop
  endfacet
  facet normal 0.595706 -0.803203 0
    outer loop
      vertex 3.88899 -5.82029 0
      vertex 4.44075 -5.41107 10
      vertex 3.88899 -5.82029 10
    endloop
  endfacet
  facet normal 0.595706 -0.803203 0
    outer loop
      vertex 4.44075 -5.41107 10
      vertex 3.88899 -5.82029 0
      vertex 4.44075 -5.41107 0
    endloop
  endfacet
  facet normal 0.803203 -0.595706 0
    outer loop
      vertex 5.41107 -4.44075 10
      vertex 5.82029 -3.88899 0
      vertex 5.82029 -3.88899 10
    endloop
  endfacet
  facet normal 0.803203 -0.595706 0
    outer loop
      vertex 5.82029 -3.88899 0
      vertex 5.41107 -4.44075 10
      vertex 5.41107 -4.44075 0
    endloop
  endfacet
  facet normal 0.857728 -0.514104 0
    outer loop
      vertex 5.82029 -3.88899 10
      vertex 6.17345 -3.29978 0
      vertex 6.17345 -3.29978 10
    endloop
  endfacet
  facet normal 0.857728 -0.514104 0
    outer loop
      vertex 6.17345 -3.29978 0
      vertex 5.82029 -3.88899 10
      vertex 5.82029 -3.88899 0
    endloop
  endfacet
  facet normal -0.67155 -0.740959 0
    outer loop
      vertex -4.94975 -4.94975 0
      vertex -4.44075 -5.41107 10
      vertex -4.94975 -4.94975 10
    endloop
  endfacet
  facet normal -0.67155 -0.740959 -0
    outer loop
      vertex -4.44075 -5.41107 10
      vertex -4.94975 -4.94975 0
      vertex -4.44075 -5.41107 0
    endloop
  endfacet
  facet normal -0.595706 -0.803203 0
    outer loop
      vertex -4.44075 -5.41107 0
      vertex -3.88899 -5.82029 10
      vertex -4.44075 -5.41107 10
    endloop
  endfacet
  facet normal -0.595706 -0.803203 -0
    outer loop
      vertex -3.88899 -5.82029 10
      vertex -4.44075 -5.41107 0
      vertex -3.88899 -5.82029 0
    endloop
  endfacet
  facet normal -0.514104 -0.857728 0
    outer loop
      vertex -3.88899 -5.82029 0
      vertex -3.29978 -6.17345 10
      vertex -3.88899 -5.82029 10
    endloop
  endfacet
  facet normal -0.514104 -0.857728 -0
    outer loop
      vertex -3.29978 -6.17345 10
      vertex -3.88899 -5.82029 0
      vertex -3.29978 -6.17345 0
    endloop
  endfacet
  facet normal -0.146722 -0.989178 0
    outer loop
      vertex -1.36563 -6.8655 0
      vertex -0.686119 -6.96629 10
      vertex -1.36563 -6.8655 10
    endloop
  endfacet
  facet normal -0.146722 -0.989178 -0
    outer loop
      vertex -0.686119 -6.96629 10
      vertex -1.36563 -6.8655 0
      vertex -0.686119 -6.96629 0
    endloop
  endfacet
  facet normal -0.90399 -0.427554 0
    outer loop
      vertex -6.17345 -3.29978 0
      vertex -6.46716 -2.67878 10
      vertex -6.46716 -2.67878 0
    endloop
  endfacet
  facet normal -0.90399 -0.427554 0
    outer loop
      vertex -6.46716 -2.67878 10
      vertex -6.17345 -3.29978 0
      vertex -6.17345 -3.29978 10
    endloop
  endfacet
  facet normal -0.998795 -0.0490722 0
    outer loop
      vertex -6.96629 -0.686119 0
      vertex -7 0 10
      vertex -7 0 0
    endloop
  endfacet
  facet normal -0.998795 -0.0490722 0
    outer loop
      vertex -7 0 10
      vertex -6.96629 -0.686119 0
      vertex -6.96629 -0.686119 10
    endloop
  endfacet
  facet normal 0.740959 0.67155 0
    outer loop
      vertex 5.41107 4.44075 10
      vertex 4.94975 4.94975 0
      vertex 4.94975 4.94975 10
    endloop
  endfacet
  facet normal 0.740959 0.67155 0
    outer loop
      vertex 4.94975 4.94975 0
      vertex 5.41107 4.44075 10
      vertex 5.41107 4.44075 0
    endloop
  endfacet
  facet normal -0.740959 0.67155 0
    outer loop
      vertex -5.41107 4.44075 0
      vertex -4.94975 4.94975 10
      vertex -4.94975 4.94975 0
    endloop
  endfacet
  facet normal -0.740959 0.67155 0
    outer loop
      vertex -4.94975 4.94975 10
      vertex -5.41107 4.44075 0
      vertex -5.41107 4.44075 10
    endloop
  endfacet
  facet normal -0.941546 0.336883 0
    outer loop
      vertex -6.69858 2.03199 0
      vertex -6.46716 2.67878 10
      vertex -6.46716 2.67878 0
    endloop
  endfacet
  facet normal -0.941546 0.336883 0
    outer loop
      vertex -6.46716 2.67878 10
      vertex -6.69858 2.03199 0
      vertex -6.69858 2.03199 10
    endloop
  endfacet
  facet normal -0.595706 0.803203 0
    outer loop
      vertex -3.88899 5.82029 0
      vertex -4.44075 5.41107 10
      vertex -3.88899 5.82029 10
    endloop
  endfacet
  facet normal -0.595706 0.803203 0
    outer loop
      vertex -4.44075 5.41107 10
      vertex -3.88899 5.82029 0
      vertex -4.44075 5.41107 0
    endloop
  endfacet
  facet normal -0.427554 0.90399 0
    outer loop
      vertex -2.67878 6.46716 0
      vertex -3.29978 6.17345 10
      vertex -2.67878 6.46716 10
    endloop
  endfacet
  facet normal -0.427554 0.90399 0
    outer loop
      vertex -3.29978 6.17345 10
      vertex -2.67878 6.46716 0
      vertex -3.29978 6.17345 0
    endloop
  endfacet
  facet normal -0.242988 0.970029 0
    outer loop
      vertex -1.36563 6.8655 0
      vertex -2.03199 6.69858 10
      vertex -1.36563 6.8655 10
    endloop
  endfacet
  facet normal -0.242988 0.970029 0
    outer loop
      vertex -2.03199 6.69858 10
      vertex -1.36563 6.8655 0
      vertex -2.03199 6.69858 0
    endloop
  endfacet
  facet normal 0.146722 -0.989178 0
    outer loop
      vertex 0.686119 -6.96629 0
      vertex 1.36563 -6.8655 10
      vertex 0.686119 -6.96629 10
    endloop
  endfacet
  facet normal 0.146722 -0.989178 0
    outer loop
      vertex 1.36563 -6.8655 10
      vertex 0.686119 -6.96629 0
      vertex 1.36563 -6.8655 0
    endloop
  endfacet
  facet normal 0.427554 -0.90399 0
    outer loop
      vertex 2.67878 -6.46716 0
      vertex 3.29978 -6.17345 10
      vertex 2.67878 -6.46716 10
    endloop
  endfacet
  facet normal 0.427554 -0.90399 0
    outer loop
      vertex 3.29978 -6.17345 10
      vertex 2.67878 -6.46716 0
      vertex 3.29978 -6.17345 0
    endloop
  endfacet
  facet normal 0.941546 -0.336883 0
    outer loop
      vertex 6.46716 -2.67878 10
      vertex 6.69858 -2.03199 0
      vertex 6.69858 -2.03199 10
    endloop
  endfacet
  facet normal 0.941546 -0.336883 0
    outer loop
      vertex 6.69858 -2.03199 0
      vertex 6.46716 -2.67878 10
      vertex 6.46716 -2.67878 0
    endloop
  endfacet
  facet normal 0.989178 -0.146722 0
    outer loop
      vertex 6.8655 -1.36563 10
      vertex 6.96629 -0.686119 0
      vertex 6.96629 -0.686119 10
    endloop
  endfacet
  facet normal 0.989178 -0.146722 0
    outer loop
      vertex 6.96629 -0.686119 0
      vertex 6.8655 -1.36563 10
      vertex 6.8655 -1.36563 0
    endloop
  endfacet
  facet normal -0.427554 -0.90399 0
    outer loop
      vertex -3.29978 -6.17345 0
      vertex -2.67878 -6.46716 10
      vertex -3.29978 -6.17345 10
    endloop
  endfacet
  facet normal -0.427554 -0.90399 -0
    outer loop
      vertex -2.67878 -6.46716 10
      vertex -3.29978 -6.17345 0
      vertex -2.67878 -6.46716 0
    endloop
  endfacet
  facet normal -0.242988 -0.970029 0
    outer loop
      vertex -2.03199 -6.69858 0
      vertex -1.36563 -6.8655 10
      vertex -2.03199 -6.69858 10
    endloop
  endfacet
  facet normal -0.242988 -0.970029 -0
    outer loop
      vertex -1.36563 -6.8655 10
      vertex -2.03199 -6.69858 0
      vertex -1.36563 -6.8655 0
    endloop
  endfacet
  facet normal -0.857728 -0.514104 0
    outer loop
      vertex -5.82029 -3.88899 0
      vertex -6.17345 -3.29978 10
      vertex -6.17345 -3.29978 0
    endloop
  endfacet
  facet normal -0.857728 -0.514104 0
    outer loop
      vertex -6.17345 -3.29978 10
      vertex -5.82029 -3.88899 0
      vertex -5.82029 -3.88899 10
    endloop
  endfacet
  facet normal -0.941546 -0.336883 0
    outer loop
      vertex -6.46716 -2.67878 0
      vertex -6.69858 -2.03199 10
      vertex -6.69858 -2.03199 0
    endloop
  endfacet
  facet normal -0.941546 -0.336883 0
    outer loop
      vertex -6.69858 -2.03199 10
      vertex -6.46716 -2.67878 0
      vertex -6.46716 -2.67878 10
    endloop
  endfacet
  facet normal -0.989178 -0.146722 0
    outer loop
      vertex -6.8655 -1.36563 0
      vertex -6.96629 -0.686119 10
      vertex -6.96629 -0.686119 0
    endloop
  endfacet
  facet normal -0.989178 -0.146722 0
    outer loop
      vertex -6.96629 -0.686119 10
      vertex -6.8655 -1.36563 0
      vertex -6.8655 -1.36563 10
    endloop
  endfacet
  facet normal 0 0 1
    outer loop
      vertex 4.15 0 10
      vertex 7 0 10
      vertex 6.96629 0.686119 10
    endloop
  endfacet
  facet normal 0 0 1
    outer loop
      vertex 4.13002 0.406771 10
      vertex 6.96629 0.686119 10
      vertex 6.8655 1.36563 10
    endloop
  endfacet
  facet normal 0 0 1
    outer loop
      vertex 7 0 10
      vertex 4.15 0 10
      vertex 6.96629 -0.686119 10
    endloop
  endfacet
  facet normal 0 0 1
    outer loop
      vertex 4.07026 0.809625 10
      vertex 6.8655 1.36563 10
      vertex 6.69858 2.03199 10
    endloop
  endfacet
  facet normal -0 0 1
    outer loop
      vertex 4.13002 -0.406771 10
      vertex 6.96629 -0.686119 10
      vertex 4.15 0 10
    endloop
  endfacet
  facet normal 0 0 1
    outer loop
      vertex 3.9713 1.20468 10
      vertex 6.69858 2.03199 10
      vertex 6.46716 2.67878 10
    endloop
  endfacet
  facet normal 0 0 1
    outer loop
      vertex 6.96629 -0.686119 10
      vertex 4.13002 -0.406771 10
      vertex 6.8655 -1.36563 10
    endloop
  endfacet
  facet normal 0 0 1
    outer loop
      vertex 3.8341 1.58814 10
      vertex 6.46716 2.67878 10
      vertex 6.17345 3.29978 10
    endloop
  endfacet
  facet normal -0 0 1
    outer loop
      vertex 4.07026 -0.809625 10
      vertex 6.8655 -1.36563 10
      vertex 4.13002 -0.406771 10
    endloop
  endfacet
  facet normal 0 0 1
    outer loop
      vertex 3.65997 1.9563 10
      vertex 6.17345 3.29978 10
      vertex 5.82029 3.88899 10
    endloop
  endfacet
  facet normal 0 0 1
    outer loop
      vertex 6.8655 -1.36563 10
      vertex 4.07026 -0.809625 10
      vertex 6.69858 -2.03199 10
    endloop
  endfacet
  facet normal 0 0 1
    outer loop
      vertex 3.4506 2.30562 10
      vertex 5.82029 3.88899 10
      vertex 5.41107 4.44075 10
    endloop
  endfacet
  facet normal -0 0 1
    outer loop
      vertex 3.9713 -1.20468 10
      vertex 6.69858 -2.03199 10
      vertex 4.07026 -0.809625 10
    endloop
  endfacet
  facet normal 0 0 1
    outer loop
      vertex 3.20799 2.63273 10
      vertex 5.41107 4.44075 10
      vertex 4.94975 4.94975 10
    endloop
  endfacet
  facet normal 0 0 1
    outer loop
      vertex 6.69858 -2.03199 10
      vertex 3.9713 -1.20468 10
      vertex 6.46716 -2.67878 10
    endloop
  endfacet
  facet normal 0 0 1
    outer loop
      vertex 2.93449 2.93449 10
      vertex 4.94975 4.94975 10
      vertex 4.44075 5.41107 10
    endloop
  endfacet
  facet normal -0 0 1
    outer loop
      vertex 3.8341 -1.58814 10
      vertex 6.46716 -2.67878 10
      vertex 3.9713 -1.20468 10
    endloop
  endfacet
  facet normal 0 0 1
    outer loop
      vertex 6.46716 -2.67878 10
      vertex 3.8341 -1.58814 10
      vertex 6.17345 -3.29978 10
    endloop
  endfacet
  facet normal 0 0 1
    outer loop
      vertex 6.96629 0.686119 10
      vertex 4.13002 0.406771 10
      vertex 4.15 0 10
    endloop
  endfacet
  facet normal 0 0 1
    outer loop
      vertex 6.8655 1.36563 10
      vertex 4.07026 0.809625 10
      vertex 4.13002 0.406771 10
    endloop
  endfacet
  facet normal 0 0 1
    outer loop
      vertex 6.69858 2.03199 10
      vertex 3.9713 1.20468 10
      vertex 4.07026 0.809625 10
    endloop
  endfacet
  facet normal 0 0 1
    outer loop
      vertex 2.63273 3.20799 10
      vertex 4.44075 5.41107 10
      vertex 3.88899 5.82029 10
    endloop
  endfacet
  facet normal 0 0 1
    outer loop
      vertex 6.46716 2.67878 10
      vertex 3.8341 1.58814 10
      vertex 3.9713 1.20468 10
    endloop
  endfacet
  facet normal 0 0 1
    outer loop
      vertex 6.17345 3.29978 10
      vertex 3.65997 1.9563 10
      vertex 3.8341 1.58814 10
    endloop
  endfacet
  facet normal 0 0 1
    outer loop
      vertex 5.82029 3.88899 10
      vertex 3.4506 2.30562 10
      vertex 3.65997 1.9563 10
    endloop
  endfacet
  facet normal 0 0 1
    outer loop
      vertex 2.30562 3.4506 10
      vertex 3.88899 5.82029 10
      vertex 3.29978 6.17345 10
    endloop
  endfacet
  facet normal 0 0 1
    outer loop
      vertex 5.41107 4.44075 10
      vertex 3.20799 2.63273 10
      vertex 3.4506 2.30562 10
    endloop
  endfacet
  facet normal 0 0 1
    outer loop
      vertex 4.94975 4.94975 10
      vertex 2.93449 2.93449 10
      vertex 3.20799 2.63273 10
    endloop
  endfacet
  facet normal 0 0 1
    outer loop
      vertex 1.9563 3.65997 10
      vertex 3.29978 6.17345 10
      vertex 2.67878 6.46716 10
    endloop
  endfacet
  facet normal 0 0 1
    outer loop
      vertex 4.44075 5.41107 10
      vertex 2.63273 3.20799 10
      vertex 2.93449 2.93449 10
    endloop
  endfacet
  facet normal 0 0 1
    outer loop
      vertex 3.88899 5.82029 10
      vertex 2.30562 3.4506 10
      vertex 2.63273 3.20799 10
    endloop
  endfacet
  facet normal 0 0 1
    outer loop
      vertex 1.58814 3.8341 10
      vertex 2.67878 6.46716 10
      vertex 2.03199 6.69858 10
    endloop
  endfacet
  facet normal 0 0 1
    outer loop
      vertex 3.29978 6.17345 10
      vertex 1.9563 3.65997 10
      vertex 2.30562 3.4506 10
    endloop
  endfacet
  facet normal 0 0 1
    outer loop
      vertex 2.67878 6.46716 10
      vertex 1.58814 3.8341 10
      vertex 1.9563 3.65997 10
    endloop
  endfacet
  facet normal 0 0 1
    outer loop
      vertex 1.20468 3.9713 10
      vertex 2.03199 6.69858 10
      vertex 1.36563 6.8655 10
    endloop
  endfacet
  facet normal 0 0 1
    outer loop
      vertex 2.03199 6.69858 10
      vertex 1.20468 3.9713 10
      vertex 1.58814 3.8341 10
    endloop
  endfacet
  facet normal 0 0 1
    outer loop
      vertex 1.36563 6.8655 10
      vertex 0.809625 4.07026 10
      vertex 1.20468 3.9713 10
    endloop
  endfacet
  facet normal 0 0 1
    outer loop
      vertex 0.686119 6.96629 10
      vertex 0.809625 4.07026 10
      vertex 1.36563 6.8655 10
    endloop
  endfacet
  facet normal 0 0 1
    outer loop
      vertex 0.686119 6.96629 10
      vertex 0.406771 4.13002 10
      vertex 0.809625 4.07026 10
    endloop
  endfacet
  facet normal 0 0 1
    outer loop
      vertex 0 7 10
      vertex 0.406771 4.13002 10
      vertex 0.686119 6.96629 10
    endloop
  endfacet
  facet normal 0 0 1
    outer loop
      vertex 0 7 10
      vertex 0 4.15 10
      vertex 0.406771 4.13002 10
    endloop
  endfacet
  facet normal 0 0 1
    outer loop
      vertex 0 7 10
      vertex -0.406771 4.13002 10
      vertex 0 4.15 10
    endloop
  endfacet
  facet normal -0 0 1
    outer loop
      vertex -0.686119 6.96629 10
      vertex -0.406771 4.13002 10
      vertex 0 7 10
    endloop
  endfacet
  facet normal 0 0 1
    outer loop
      vertex -0.686119 6.96629 10
      vertex -0.809625 4.07026 10
      vertex -0.406771 4.13002 10
    endloop
  endfacet
  facet normal -0 0 1
    outer loop
      vertex -1.36563 6.8655 10
      vertex -0.809625 4.07026 10
      vertex -0.686119 6.96629 10
    endloop
  endfacet
  facet normal 0 0 1
    outer loop
      vertex -0.809625 4.07026 10
      vertex -1.36563 6.8655 10
      vertex -1.20468 3.9713 10
    endloop
  endfacet
  facet normal -0 0 1
    outer loop
      vertex -2.03199 6.69858 10
      vertex -1.20468 3.9713 10
      vertex -1.36563 6.8655 10
    endloop
  endfacet
  facet normal 0 0 1
    outer loop
      vertex -1.20468 3.9713 10
      vertex -2.03199 6.69858 10
      vertex -1.58814 3.8341 10
    endloop
  endfacet
  facet normal -0 0 1
    outer loop
      vertex -2.67878 6.46716 10
      vertex -1.58814 3.8341 10
      vertex -2.03199 6.69858 10
    endloop
  endfacet
  facet normal 0 0 1
    outer loop
      vertex -1.58814 3.8341 10
      vertex -2.67878 6.46716 10
      vertex -1.9563 3.65997 10
    endloop
  endfacet
  facet normal -0 0 1
    outer loop
      vertex -3.29978 6.17345 10
      vertex -1.9563 3.65997 10
      vertex -2.67878 6.46716 10
    endloop
  endfacet
  facet normal 0 0 1
    outer loop
      vertex -1.9563 3.65997 10
      vertex -3.29978 6.17345 10
      vertex -2.30562 3.4506 10
    endloop
  endfacet
  facet normal -0 0 1
    outer loop
      vertex -3.88899 5.82029 10
      vertex -2.30562 3.4506 10
      vertex -3.29978 6.17345 10
    endloop
  endfacet
  facet normal 0 0 1
    outer loop
      vertex -2.30562 3.4506 10
      vertex -3.88899 5.82029 10
      vertex -2.63273 3.20799 10
    endloop
  endfacet
  facet normal -0 0 1
    outer loop
      vertex -4.44075 5.41107 10
      vertex -2.63273 3.20799 10
      vertex -3.88899 5.82029 10
    endloop
  endfacet
  facet normal 0 0 1
    outer loop
      vertex -2.63273 3.20799 10
      vertex -4.44075 5.41107 10
      vertex -2.93449 2.93449 10
    endloop
  endfacet
  facet normal -0 0 1
    outer loop
      vertex -4.94975 4.94975 10
      vertex -2.93449 2.93449 10
      vertex -4.44075 5.41107 10
    endloop
  endfacet
  facet normal 0 0 1
    outer loop
      vertex -2.93449 2.93449 10
      vertex -4.94975 4.94975 10
      vertex -3.20799 2.63273 10
    endloop
  endfacet
  facet normal -0 0 1
    outer loop
      vertex -5.41107 4.44075 10
      vertex -3.20799 2.63273 10
      vertex -4.94975 4.94975 10
    endloop
  endfacet
  facet normal 0 0 1
    outer loop
      vertex -3.20799 2.63273 10
      vertex -5.41107 4.44075 10
      vertex -3.4506 2.30562 10
    endloop
  endfacet
  facet normal -0 0 1
    outer loop
      vertex -5.82029 3.88899 10
      vertex -3.4506 2.30562 10
      vertex -5.41107 4.44075 10
    endloop
  endfacet
  facet normal 0 0 1
    outer loop
      vertex -3.4506 2.30562 10
      vertex -5.82029 3.88899 10
      vertex -3.65997 1.9563 10
    endloop
  endfacet
  facet normal -0 0 1
    outer loop
      vertex -6.17345 3.29978 10
      vertex -3.65997 1.9563 10
      vertex -5.82029 3.88899 10
    endloop
  endfacet
  facet normal 0 0 1
    outer loop
      vertex -3.65997 1.9563 10
      vertex -6.17345 3.29978 10
      vertex -3.8341 1.58814 10
    endloop
  endfacet
  facet normal -0 0 1
    outer loop
      vertex 3.65997 -1.9563 10
      vertex 6.17345 -3.29978 10
      vertex 3.8341 -1.58814 10
    endloop
  endfacet
  facet normal 0 0 1
    outer loop
      vertex 6.17345 -3.29978 10
      vertex 3.65997 -1.9563 10
      vertex 5.82029 -3.88899 10
    endloop
  endfacet
  facet normal -0 0 1
    outer loop
      vertex 3.4506 -2.30562 10
      vertex 5.82029 -3.88899 10
      vertex 3.65997 -1.9563 10
    endloop
  endfacet
  facet normal 0 0 1
    outer loop
      vertex 5.82029 -3.88899 10
      vertex 3.4506 -2.30562 10
      vertex 5.41107 -4.44075 10
    endloop
  endfacet
  facet normal -0 0 1
    outer loop
      vertex 3.20799 -2.63273 10
      vertex 5.41107 -4.44075 10
      vertex 3.4506 -2.30562 10
    endloop
  endfacet
  facet normal 0 0 1
    outer loop
      vertex 5.41107 -4.44075 10
      vertex 3.20799 -2.63273 10
      vertex 4.94975 -4.94975 10
    endloop
  endfacet
  facet normal -0 0 1
    outer loop
      vertex 2.93449 -2.93449 10
      vertex 4.94975 -4.94975 10
      vertex 3.20799 -2.63273 10
    endloop
  endfacet
  facet normal 0 0 1
    outer loop
      vertex 4.94975 -4.94975 10
      vertex 2.93449 -2.93449 10
      vertex 4.44075 -5.41107 10
    endloop
  endfacet
  facet normal -0 0 1
    outer loop
      vertex 2.63273 -3.20799 10
      vertex 4.44075 -5.41107 10
      vertex 2.93449 -2.93449 10
    endloop
  endfacet
  facet normal 0 0 1
    outer loop
      vertex 4.44075 -5.41107 10
      vertex 2.63273 -3.20799 10
      vertex 3.88899 -5.82029 10
    endloop
  endfacet
  facet normal -0 0 1
    outer loop
      vertex 2.30562 -3.4506 10
      vertex 3.88899 -5.82029 10
      vertex 2.63273 -3.20799 10
    endloop
  endfacet
  facet normal 0 0 1
    outer loop
      vertex 3.88899 -5.82029 10
      vertex 2.30562 -3.4506 10
      vertex 3.29978 -6.17345 10
    endloop
  endfacet
  facet normal -0 0 1
    outer loop
      vertex 1.9563 -3.65997 10
      vertex 3.29978 -6.17345 10
      vertex 2.30562 -3.4506 10
    endloop
  endfacet
  facet normal 0 0 1
    outer loop
      vertex 3.29978 -6.17345 10
      vertex 1.9563 -3.65997 10
      vertex 2.67878 -6.46716 10
    endloop
  endfacet
  facet normal -0 0 1
    outer loop
      vertex 1.58814 -3.8341 10
      vertex 2.67878 -6.46716 10
      vertex 1.9563 -3.65997 10
    endloop
  endfacet
  facet normal 0 0 1
    outer loop
      vertex 2.67878 -6.46716 10
      vertex 1.58814 -3.8341 10
      vertex 2.03199 -6.69858 10
    endloop
  endfacet
  facet normal -0 0 1
    outer loop
      vertex 1.20468 -3.9713 10
      vertex 2.03199 -6.69858 10
      vertex 1.58814 -3.8341 10
    endloop
  endfacet
  facet normal 0 0 1
    outer loop
      vertex 2.03199 -6.69858 10
      vertex 1.20468 -3.9713 10
      vertex 1.36563 -6.8655 10
    endloop
  endfacet
  facet normal -0 0 1
    outer loop
      vertex 0.809625 -4.07026 10
      vertex 1.36563 -6.8655 10
      vertex 1.20468 -3.9713 10
    endloop
  endfacet
  facet normal 0 0 1
    outer loop
      vertex 0.809625 -4.07026 10
      vertex 0.686119 -6.96629 10
      vertex 1.36563 -6.8655 10
    endloop
  endfacet
  facet normal -0 0 1
    outer loop
      vertex 0.406771 -4.13002 10
      vertex 0.686119 -6.96629 10
      vertex 0.809625 -4.07026 10
    endloop
  endfacet
  facet normal -0 0 1
    outer loop
      vertex 0 -4.15 10
      vertex 0.686119 -6.96629 10
      vertex 0.406771 -4.13002 10
    endloop
  endfacet
  facet normal 0 0 1
    outer loop
      vertex 0 -4.15 10
      vertex 0 -7 10
      vertex 0.686119 -6.96629 10
    endloop
  endfacet
  facet normal 0 0 1
    outer loop
      vertex -0.406771 -4.13002 10
      vertex 0 -7 10
      vertex 0 -4.15 10
    endloop
  endfacet
  facet normal 0 0 1
    outer loop
      vertex -0.406771 -4.13002 10
      vertex -0.686119 -6.96629 10
      vertex 0 -7 10
    endloop
  endfacet
  facet normal 0 0 1
    outer loop
      vertex -0.809625 -4.07026 10
      vertex -0.686119 -6.96629 10
      vertex -0.406771 -4.13002 10
    endloop
  endfacet
  facet normal 0 0 1
    outer loop
      vertex -1.36563 -6.8655 10
      vertex -0.809625 -4.07026 10
      vertex -1.20468 -3.9713 10
    endloop
  endfacet
  facet normal 0 0 1
    outer loop
      vertex -0.809625 -4.07026 10
      vertex -1.36563 -6.8655 10
      vertex -0.686119 -6.96629 10
    endloop
  endfacet
  facet normal 0 0 1
    outer loop
      vertex -2.03199 -6.69858 10
      vertex -1.20468 -3.9713 10
      vertex -1.58814 -3.8341 10
    endloop
  endfacet
  facet normal 0 0 1
    outer loop
      vertex -2.67878 -6.46716 10
      vertex -1.58814 -3.8341 10
      vertex -1.9563 -3.65997 10
    endloop
  endfacet
  facet normal 0 0 1
    outer loop
      vertex -1.20468 -3.9713 10
      vertex -2.03199 -6.69858 10
      vertex -1.36563 -6.8655 10
    endloop
  endfacet
  facet normal 0 0 1
    outer loop
      vertex -3.29978 -6.17345 10
      vertex -1.9563 -3.65997 10
      vertex -2.30562 -3.4506 10
    endloop
  endfacet
  facet normal 0 0 1
    outer loop
      vertex -3.88899 -5.82029 10
      vertex -2.30562 -3.4506 10
      vertex -2.63273 -3.20799 10
    endloop
  endfacet
  facet normal 0 0 1
    outer loop
      vertex -1.58814 -3.8341 10
      vertex -2.67878 -6.46716 10
      vertex -2.03199 -6.69858 10
    endloop
  endfacet
  facet normal 0 0 1
    outer loop
      vertex -4.44075 -5.41107 10
      vertex -2.63273 -3.20799 10
      vertex -2.93449 -2.93449 10
    endloop
  endfacet
  facet normal 0 0 1
    outer loop
      vertex -4.94975 -4.94975 10
      vertex -2.93449 -2.93449 10
      vertex -3.20799 -2.63273 10
    endloop
  endfacet
  facet normal 0 0 1
    outer loop
      vertex -1.9563 -3.65997 10
      vertex -3.29978 -6.17345 10
      vertex -2.67878 -6.46716 10
    endloop
  endfacet
  facet normal 0 0 1
    outer loop
      vertex -5.41107 -4.44075 10
      vertex -3.20799 -2.63273 10
      vertex -3.4506 -2.30562 10
    endloop
  endfacet
  facet normal 0 0 1
    outer loop
      vertex -5.82029 -3.88899 10
      vertex -3.4506 -2.30562 10
      vertex -3.65997 -1.9563 10
    endloop
  endfacet
  facet normal 0 0 1
    outer loop
      vertex -6.17345 -3.29978 10
      vertex -3.65997 -1.9563 10
      vertex -3.8341 -1.58814 10
    endloop
  endfacet
  facet normal 0 0 1
    outer loop
      vertex -2.30562 -3.4506 10
      vertex -3.88899 -5.82029 10
      vertex -3.29978 -6.17345 10
    endloop
  endfacet
  facet normal 0 0 1
    outer loop
      vertex -6.46716 -2.67878 10
      vertex -3.8341 -1.58814 10
      vertex -3.9713 -1.20468 10
    endloop
  endfacet
  facet normal 0 0 1
    outer loop
      vertex -6.69858 -2.03199 10
      vertex -3.9713 -1.20468 10
      vertex -4.07026 -0.809625 10
    endloop
  endfacet
  facet normal 0 0 1
    outer loop
      vertex -6.8655 -1.36563 10
      vertex -4.07026 -0.809625 10
      vertex -4.13002 -0.406771 10
    endloop
  endfacet
  facet normal 0 0 1
    outer loop
      vertex -6.96629 -0.686119 10
      vertex -4.13002 -0.406771 10
      vertex -4.15 0 10
    endloop
  endfacet
  facet normal -0 0 1
    outer loop
      vertex -6.46716 2.67878 10
      vertex -3.8341 1.58814 10
      vertex -6.17345 3.29978 10
    endloop
  endfacet
  facet normal 0 0 1
    outer loop
      vertex -2.63273 -3.20799 10
      vertex -4.44075 -5.41107 10
      vertex -3.88899 -5.82029 10
    endloop
  endfacet
  facet normal 0 0 1
    outer loop
      vertex -3.8341 1.58814 10
      vertex -6.46716 2.67878 10
      vertex -3.9713 1.20468 10
    endloop
  endfacet
  facet normal 0 0 1
    outer loop
      vertex -2.93449 -2.93449 10
      vertex -4.94975 -4.94975 10
      vertex -4.44075 -5.41107 10
    endloop
  endfacet
  facet normal -0 0 1
    outer loop
      vertex -6.69858 2.03199 10
      vertex -3.9713 1.20468 10
      vertex -6.46716 2.67878 10
    endloop
  endfacet
  facet normal 0 0 1
    outer loop
      vertex -3.20799 -2.63273 10
      vertex -5.41107 -4.44075 10
      vertex -4.94975 -4.94975 10
    endloop
  endfacet
  facet normal 0 0 1
    outer loop
      vertex -3.9713 1.20468 10
      vertex -6.69858 2.03199 10
      vertex -4.07026 0.809625 10
    endloop
  endfacet
  facet normal 0 0 1
    outer loop
      vertex -3.4506 -2.30562 10
      vertex -5.82029 -3.88899 10
      vertex -5.41107 -4.44075 10
    endloop
  endfacet
  facet normal -0 0 1
    outer loop
      vertex -6.8655 1.36563 10
      vertex -4.07026 0.809625 10
      vertex -6.69858 2.03199 10
    endloop
  endfacet
  facet normal 0 0 1
    outer loop
      vertex -3.65997 -1.9563 10
      vertex -6.17345 -3.29978 10
      vertex -5.82029 -3.88899 10
    endloop
  endfacet
  facet normal 0 0 1
    outer loop
      vertex -4.07026 0.809625 10
      vertex -6.8655 1.36563 10
      vertex -4.13002 0.406771 10
    endloop
  endfacet
  facet normal 0 0 1
    outer loop
      vertex -3.8341 -1.58814 10
      vertex -6.46716 -2.67878 10
      vertex -6.17345 -3.29978 10
    endloop
  endfacet
  facet normal -0 0 1
    outer loop
      vertex -6.96629 0.686119 10
      vertex -4.13002 0.406771 10
      vertex -6.8655 1.36563 10
    endloop
  endfacet
  facet normal 0 0 1
    outer loop
      vertex -3.9713 -1.20468 10
      vertex -6.69858 -2.03199 10
      vertex -6.46716 -2.67878 10
    endloop
  endfacet
  facet normal 0 0 1
    outer loop
      vertex -4.13002 0.406771 10
      vertex -6.96629 0.686119 10
      vertex -4.15 0 10
    endloop
  endfacet
  facet normal 0 0 1
    outer loop
      vertex -4.07026 -0.809625 10
      vertex -6.8655 -1.36563 10
      vertex -6.69858 -2.03199 10
    endloop
  endfacet
  facet normal 0 0 1
    outer loop
      vertex -7 0 10
      vertex -4.15 0 10
      vertex -6.96629 0.686119 10
    endloop
  endfacet
  facet normal 0 0 1
    outer loop
      vertex -4.13002 -0.406771 10
      vertex -6.96629 -0.686119 10
      vertex -6.8655 -1.36563 10
    endloop
  endfacet
  facet normal 0 0 1
    outer loop
      vertex -4.15 0 10
      vertex -7 0 10
      vertex -6.96629 -0.686119 10
    endloop
  endfacet
  facet normal 0.336883 -0.941546 0
    outer loop
      vertex 2.03199 -6.69858 0
      vertex 2.67878 -6.46716 10
      vertex 2.03199 -6.69858 10
    endloop
  endfacet
  facet normal 0.336883 -0.941546 0
    outer loop
      vertex 2.67878 -6.46716 10
      vertex 2.03199 -6.69858 0
      vertex 2.67878 -6.46716 0
    endloop
  endfacet
  facet normal -0.998796 -0.0490594 0
    outer loop
      vertex 4.15 0 0
      vertex 4.13002 0.406771 10
      vertex 4.13002 0.406771 0
    endloop
  endfacet
  facet normal -0.998796 -0.0490594 0
    outer loop
      vertex 4.13002 0.406771 10
      vertex 4.15 0 0
      vertex 4.15 0 10
    endloop
  endfacet
  facet normal 0.998796 -0.0490594 0
    outer loop
      vertex -4.15 0 10
      vertex -4.13002 0.406771 0
      vertex -4.13002 0.406771 10
    endloop
  endfacet
  facet normal 0.998796 -0.0490594 0
    outer loop
      vertex -4.13002 0.406771 0
      vertex -4.15 0 10
      vertex -4.15 0 0
    endloop
  endfacet
  facet normal 0.0490594 -0.998796 0
    outer loop
      vertex -0.406771 4.13002 0
      vertex 0 4.15 10
      vertex -0.406771 4.13002 10
    endloop
  endfacet
  facet normal 0.0490594 -0.998796 0
    outer loop
      vertex 0 4.15 10
      vertex -0.406771 4.13002 0
      vertex 0 4.15 0
    endloop
  endfacet
  facet normal -0.0490594 0.998796 0
    outer loop
      vertex 0.406771 -4.13002 0
      vertex 0 -4.15 10
      vertex 0.406771 -4.13002 10
    endloop
  endfacet
  facet normal -0.0490594 0.998796 0
    outer loop
      vertex 0 -4.15 10
      vertex 0.406771 -4.13002 0
      vertex 0 -4.15 0
    endloop
  endfacet
  facet normal -0.67156 -0.74095 0
    outer loop
      vertex 2.63273 3.20799 0
      vertex 2.93449 2.93449 10
      vertex 2.63273 3.20799 10
    endloop
  endfacet
  facet normal -0.67156 -0.74095 -0
    outer loop
      vertex 2.93449 2.93449 10
      vertex 2.63273 3.20799 0
      vertex 2.93449 2.93449 0
    endloop
  endfacet
  facet normal 0.67156 -0.74095 0
    outer loop
      vertex -2.93449 2.93449 0
      vertex -2.63273 3.20799 10
      vertex -2.93449 2.93449 10
    endloop
  endfacet
  facet normal 0.67156 -0.74095 0
    outer loop
      vertex -2.63273 3.20799 10
      vertex -2.93449 2.93449 0
      vertex -2.63273 3.20799 0
    endloop
  endfacet
  facet normal 0.427562 -0.903986 0
    outer loop
      vertex -1.9563 3.65997 0
      vertex -1.58814 3.8341 10
      vertex -1.9563 3.65997 10
    endloop
  endfacet
  facet normal 0.427562 -0.903986 0
    outer loop
      vertex -1.58814 3.8341 10
      vertex -1.9563 3.65997 0
      vertex -1.58814 3.8341 0
    endloop
  endfacet
  facet normal -0.903986 -0.427562 0
    outer loop
      vertex 3.8341 1.58814 0
      vertex 3.65997 1.9563 10
      vertex 3.65997 1.9563 0
    endloop
  endfacet
  facet normal -0.903986 -0.427562 0
    outer loop
      vertex 3.65997 1.9563 10
      vertex 3.8341 1.58814 0
      vertex 3.8341 1.58814 10
    endloop
  endfacet
  facet normal -0.336881 -0.941547 0
    outer loop
      vertex 1.20468 3.9713 0
      vertex 1.58814 3.8341 10
      vertex 1.20468 3.9713 10
    endloop
  endfacet
  facet normal -0.336881 -0.941547 -0
    outer loop
      vertex 1.58814 3.8341 10
      vertex 1.20468 3.9713 0
      vertex 1.58814 3.8341 0
    endloop
  endfacet
  facet normal -0.514095 -0.857733 0
    outer loop
      vertex 1.9563 3.65997 0
      vertex 2.30562 3.4506 10
      vertex 1.9563 3.65997 10
    endloop
  endfacet
  facet normal -0.514095 -0.857733 -0
    outer loop
      vertex 2.30562 3.4506 10
      vertex 1.9563 3.65997 0
      vertex 2.30562 3.4506 0
    endloop
  endfacet
  facet normal 0.857733 -0.514095 0
    outer loop
      vertex -3.65997 1.9563 10
      vertex -3.4506 2.30562 0
      vertex -3.4506 2.30562 10
    endloop
  endfacet
  facet normal 0.857733 -0.514095 0
    outer loop
      vertex -3.4506 2.30562 0
      vertex -3.65997 1.9563 10
      vertex -3.65997 1.9563 0
    endloop
  endfacet
  facet normal 0.803197 -0.595713 0
    outer loop
      vertex -3.4506 2.30562 10
      vertex -3.20799 2.63273 0
      vertex -3.20799 2.63273 10
    endloop
  endfacet
  facet normal 0.803197 -0.595713 0
    outer loop
      vertex -3.20799 2.63273 0
      vertex -3.4506 2.30562 10
      vertex -3.4506 2.30562 0
    endloop
  endfacet
  facet normal 0.514095 -0.857733 0
    outer loop
      vertex -2.30562 3.4506 0
      vertex -1.9563 3.65997 10
      vertex -2.30562 3.4506 10
    endloop
  endfacet
  facet normal 0.514095 -0.857733 0
    outer loop
      vertex -1.9563 3.65997 10
      vertex -2.30562 3.4506 0
      vertex -1.9563 3.65997 0
    endloop
  endfacet
  facet normal 0.242989 -0.970029 0
    outer loop
      vertex -1.20468 3.9713 0
      vertex -0.809625 4.07026 10
      vertex -1.20468 3.9713 10
    endloop
  endfacet
  facet normal 0.242989 -0.970029 0
    outer loop
      vertex -0.809625 4.07026 10
      vertex -1.20468 3.9713 0
      vertex -0.809625 4.07026 0
    endloop
  endfacet
  facet normal -0.336881 0.941547 0
    outer loop
      vertex 1.58814 -3.8341 0
      vertex 1.20468 -3.9713 10
      vertex 1.58814 -3.8341 10
    endloop
  endfacet
  facet normal -0.336881 0.941547 0
    outer loop
      vertex 1.20468 -3.9713 10
      vertex 1.58814 -3.8341 0
      vertex 1.20468 -3.9713 0
    endloop
  endfacet
  facet normal -0.970029 -0.242989 0
    outer loop
      vertex 4.07026 0.809625 0
      vertex 3.9713 1.20468 10
      vertex 3.9713 1.20468 0
    endloop
  endfacet
  facet normal -0.970029 -0.242989 0
    outer loop
      vertex 3.9713 1.20468 10
      vertex 4.07026 0.809625 0
      vertex 4.07026 0.809625 10
    endloop
  endfacet
  facet normal -0.989176 -0.146736 0
    outer loop
      vertex 4.13002 0.406771 0
      vertex 4.07026 0.809625 10
      vertex 4.07026 0.809625 0
    endloop
  endfacet
  facet normal -0.989176 -0.146736 0
    outer loop
      vertex 4.07026 0.809625 10
      vertex 4.13002 0.406771 0
      vertex 4.13002 0.406771 10
    endloop
  endfacet
  facet normal -0.941547 -0.336881 0
    outer loop
      vertex 3.9713 1.20468 0
      vertex 3.8341 1.58814 10
      vertex 3.8341 1.58814 0
    endloop
  endfacet
  facet normal -0.941547 -0.336881 0
    outer loop
      vertex 3.8341 1.58814 10
      vertex 3.9713 1.20468 0
      vertex 3.9713 1.20468 10
    endloop
  endfacet
  facet normal -0.803197 -0.595713 0
    outer loop
      vertex 3.4506 2.30562 0
      vertex 3.20799 2.63273 10
      vertex 3.20799 2.63273 0
    endloop
  endfacet
  facet normal -0.803197 -0.595713 0
    outer loop
      vertex 3.20799 2.63273 10
      vertex 3.4506 2.30562 0
      vertex 3.4506 2.30562 10
    endloop
  endfacet
  facet normal -0.74095 -0.67156 0
    outer loop
      vertex 3.20799 2.63273 0
      vertex 2.93449 2.93449 10
      vertex 2.93449 2.93449 0
    endloop
  endfacet
  facet normal -0.74095 -0.67156 0
    outer loop
      vertex 2.93449 2.93449 10
      vertex 3.20799 2.63273 0
      vertex 3.20799 2.63273 10
    endloop
  endfacet
  facet normal -0.146736 -0.989176 0
    outer loop
      vertex 0.406771 4.13002 0
      vertex 0.809625 4.07026 10
      vertex 0.406771 4.13002 10
    endloop
  endfacet
  facet normal -0.146736 -0.989176 -0
    outer loop
      vertex 0.809625 4.07026 10
      vertex 0.406771 4.13002 0
      vertex 0.809625 4.07026 0
    endloop
  endfacet
  facet normal -0.242989 -0.970029 0
    outer loop
      vertex 0.809625 4.07026 0
      vertex 1.20468 3.9713 10
      vertex 0.809625 4.07026 10
    endloop
  endfacet
  facet normal -0.242989 -0.970029 -0
    outer loop
      vertex 1.20468 3.9713 10
      vertex 0.809625 4.07026 0
      vertex 1.20468 3.9713 0
    endloop
  endfacet
  facet normal -0.0490594 -0.998796 0
    outer loop
      vertex 0 4.15 0
      vertex 0.406771 4.13002 10
      vertex 0 4.15 10
    endloop
  endfacet
  facet normal -0.0490594 -0.998796 -0
    outer loop
      vertex 0.406771 4.13002 10
      vertex 0 4.15 0
      vertex 0.406771 4.13002 0
    endloop
  endfacet
  facet normal -0.427562 -0.903986 0
    outer loop
      vertex 1.58814 3.8341 0
      vertex 1.9563 3.65997 10
      vertex 1.58814 3.8341 10
    endloop
  endfacet
  facet normal -0.427562 -0.903986 -0
    outer loop
      vertex 1.9563 3.65997 10
      vertex 1.58814 3.8341 0
      vertex 1.9563 3.65997 0
    endloop
  endfacet
  facet normal -0.595713 -0.803197 0
    outer loop
      vertex 2.30562 3.4506 0
      vertex 2.63273 3.20799 10
      vertex 2.30562 3.4506 10
    endloop
  endfacet
  facet normal -0.595713 -0.803197 -0
    outer loop
      vertex 2.63273 3.20799 10
      vertex 2.30562 3.4506 0
      vertex 2.63273 3.20799 0
    endloop
  endfacet
  facet normal 0.970029 -0.242989 0
    outer loop
      vertex -4.07026 0.809625 10
      vertex -3.9713 1.20468 0
      vertex -3.9713 1.20468 10
    endloop
  endfacet
  facet normal 0.970029 -0.242989 0
    outer loop
      vertex -3.9713 1.20468 0
      vertex -4.07026 0.809625 10
      vertex -4.07026 0.809625 0
    endloop
  endfacet
  facet normal 0.74095 -0.67156 0
    outer loop
      vertex -3.20799 2.63273 10
      vertex -2.93449 2.93449 0
      vertex -2.93449 2.93449 10
    endloop
  endfacet
  facet normal 0.74095 -0.67156 0
    outer loop
      vertex -2.93449 2.93449 0
      vertex -3.20799 2.63273 10
      vertex -3.20799 2.63273 0
    endloop
  endfacet
  facet normal 0.903986 -0.427562 0
    outer loop
      vertex -3.8341 1.58814 10
      vertex -3.65997 1.9563 0
      vertex -3.65997 1.9563 10
    endloop
  endfacet
  facet normal 0.903986 -0.427562 0
    outer loop
      vertex -3.65997 1.9563 0
      vertex -3.8341 1.58814 10
      vertex -3.8341 1.58814 0
    endloop
  endfacet
  facet normal 0.941547 -0.336881 0
    outer loop
      vertex -3.9713 1.20468 10
      vertex -3.8341 1.58814 0
      vertex -3.8341 1.58814 10
    endloop
  endfacet
  facet normal 0.941547 -0.336881 0
    outer loop
      vertex -3.8341 1.58814 0
      vertex -3.9713 1.20468 10
      vertex -3.9713 1.20468 0
    endloop
  endfacet
  facet normal 0.989176 -0.146736 0
    outer loop
      vertex -4.13002 0.406771 10
      vertex -4.07026 0.809625 0
      vertex -4.07026 0.809625 10
    endloop
  endfacet
  facet normal 0.989176 -0.146736 0
    outer loop
      vertex -4.07026 0.809625 0
      vertex -4.13002 0.406771 10
      vertex -4.13002 0.406771 0
    endloop
  endfacet
  facet normal 0.595713 -0.803197 0
    outer loop
      vertex -2.63273 3.20799 0
      vertex -2.30562 3.4506 10
      vertex -2.63273 3.20799 10
    endloop
  endfacet
  facet normal 0.595713 -0.803197 0
    outer loop
      vertex -2.30562 3.4506 10
      vertex -2.63273 3.20799 0
      vertex -2.30562 3.4506 0
    endloop
  endfacet
  facet normal 0.336881 -0.941547 0
    outer loop
      vertex -1.58814 3.8341 0
      vertex -1.20468 3.9713 10
      vertex -1.58814 3.8341 10
    endloop
  endfacet
  facet normal 0.336881 -0.941547 0
    outer loop
      vertex -1.20468 3.9713 10
      vertex -1.58814 3.8341 0
      vertex -1.20468 3.9713 0
    endloop
  endfacet
  facet normal 0.146736 -0.989176 0
    outer loop
      vertex -0.809625 4.07026 0
      vertex -0.406771 4.13002 10
      vertex -0.809625 4.07026 10
    endloop
  endfacet
  facet normal 0.146736 -0.989176 0
    outer loop
      vertex -0.406771 4.13002 10
      vertex -0.809625 4.07026 0
      vertex -0.406771 4.13002 0
    endloop
  endfacet
  facet normal -0.998796 0.0490594 0
    outer loop
      vertex 4.13002 -0.406771 0
      vertex 4.15 0 10
      vertex 4.15 0 0
    endloop
  endfacet
  facet normal -0.998796 0.0490594 0
    outer loop
      vertex 4.15 0 10
      vertex 4.13002 -0.406771 0
      vertex 4.13002 -0.406771 10
    endloop
  endfacet
  facet normal -0.74095 0.67156 0
    outer loop
      vertex 2.93449 -2.93449 0
      vertex 3.20799 -2.63273 10
      vertex 3.20799 -2.63273 0
    endloop
  endfacet
  facet normal -0.74095 0.67156 0
    outer loop
      vertex 3.20799 -2.63273 10
      vertex 2.93449 -2.93449 0
      vertex 2.93449 -2.93449 10
    endloop
  endfacet
  facet normal -0.427562 0.903986 0
    outer loop
      vertex 1.9563 -3.65997 0
      vertex 1.58814 -3.8341 10
      vertex 1.9563 -3.65997 10
    endloop
  endfacet
  facet normal -0.427562 0.903986 0
    outer loop
      vertex 1.58814 -3.8341 10
      vertex 1.9563 -3.65997 0
      vertex 1.58814 -3.8341 0
    endloop
  endfacet
  facet normal -0.857733 -0.514095 0
    outer loop
      vertex 3.65997 1.9563 0
      vertex 3.4506 2.30562 10
      vertex 3.4506 2.30562 0
    endloop
  endfacet
  facet normal -0.857733 -0.514095 0
    outer loop
      vertex 3.4506 2.30562 10
      vertex 3.65997 1.9563 0
      vertex 3.65997 1.9563 10
    endloop
  endfacet
  facet normal -0.970029 0.242989 0
    outer loop
      vertex 3.9713 -1.20468 0
      vertex 4.07026 -0.809625 10
      vertex 4.07026 -0.809625 0
    endloop
  endfacet
  facet normal -0.970029 0.242989 0
    outer loop
      vertex 4.07026 -0.809625 10
      vertex 3.9713 -1.20468 0
      vertex 3.9713 -1.20468 10
    endloop
  endfacet
  facet normal -0.803197 0.595713 0
    outer loop
      vertex 3.20799 -2.63273 0
      vertex 3.4506 -2.30562 10
      vertex 3.4506 -2.30562 0
    endloop
  endfacet
  facet normal -0.803197 0.595713 0
    outer loop
      vertex 3.4506 -2.30562 10
      vertex 3.20799 -2.63273 0
      vertex 3.20799 -2.63273 10
    endloop
  endfacet
  facet normal -0.514095 0.857733 0
    outer loop
      vertex 2.30562 -3.4506 0
      vertex 1.9563 -3.65997 10
      vertex 2.30562 -3.4506 10
    endloop
  endfacet
  facet normal -0.514095 0.857733 0
    outer loop
      vertex 1.9563 -3.65997 10
      vertex 2.30562 -3.4506 0
      vertex 1.9563 -3.65997 0
    endloop
  endfacet
  facet normal -0.941547 0.336881 0
    outer loop
      vertex 3.8341 -1.58814 0
      vertex 3.9713 -1.20468 10
      vertex 3.9713 -1.20468 0
    endloop
  endfacet
  facet normal -0.941547 0.336881 0
    outer loop
      vertex 3.9713 -1.20468 10
      vertex 3.8341 -1.58814 0
      vertex 3.8341 -1.58814 10
    endloop
  endfacet
  facet normal -0.903986 0.427562 0
    outer loop
      vertex 3.65997 -1.9563 0
      vertex 3.8341 -1.58814 10
      vertex 3.8341 -1.58814 0
    endloop
  endfacet
  facet normal -0.903986 0.427562 0
    outer loop
      vertex 3.8341 -1.58814 10
      vertex 3.65997 -1.9563 0
      vertex 3.65997 -1.9563 10
    endloop
  endfacet
  facet normal 0.803197 0.595713 0
    outer loop
      vertex -3.20799 -2.63273 10
      vertex -3.4506 -2.30562 0
      vertex -3.4506 -2.30562 10
    endloop
  endfacet
  facet normal 0.803197 0.595713 0
    outer loop
      vertex -3.4506 -2.30562 0
      vertex -3.20799 -2.63273 10
      vertex -3.20799 -2.63273 0
    endloop
  endfacet
  facet normal 0.903986 0.427562 0
    outer loop
      vertex -3.65997 -1.9563 10
      vertex -3.8341 -1.58814 0
      vertex -3.8341 -1.58814 10
    endloop
  endfacet
  facet normal 0.903986 0.427562 0
    outer loop
      vertex -3.8341 -1.58814 0
      vertex -3.65997 -1.9563 10
      vertex -3.65997 -1.9563 0
    endloop
  endfacet
  facet normal 0.857733 0.514095 0
    outer loop
      vertex -3.4506 -2.30562 10
      vertex -3.65997 -1.9563 0
      vertex -3.65997 -1.9563 10
    endloop
  endfacet
  facet normal 0.857733 0.514095 0
    outer loop
      vertex -3.65997 -1.9563 0
      vertex -3.4506 -2.30562 10
      vertex -3.4506 -2.30562 0
    endloop
  endfacet
  facet normal 0.970029 0.242989 0
    outer loop
      vertex -3.9713 -1.20468 10
      vertex -4.07026 -0.809625 0
      vertex -4.07026 -0.809625 10
    endloop
  endfacet
  facet normal 0.970029 0.242989 0
    outer loop
      vertex -4.07026 -0.809625 0
      vertex -3.9713 -1.20468 10
      vertex -3.9713 -1.20468 0
    endloop
  endfacet
  facet normal 0.998796 0.0490594 0
    outer loop
      vertex -4.13002 -0.406771 10
      vertex -4.15 0 0
      vertex -4.15 0 10
    endloop
  endfacet
  facet normal 0.998796 0.0490594 0
    outer loop
      vertex -4.15 0 0
      vertex -4.13002 -0.406771 10
      vertex -4.13002 -0.406771 0
    endloop
  endfacet
  facet normal -0.989176 0.146736 0
    outer loop
      vertex 4.07026 -0.809625 0
      vertex 4.13002 -0.406771 10
      vertex 4.13002 -0.406771 0
    endloop
  endfacet
  facet normal -0.989176 0.146736 0
    outer loop
      vertex 4.13002 -0.406771 10
      vertex 4.07026 -0.809625 0
      vertex 4.07026 -0.809625 10
    endloop
  endfacet
  facet normal -0.857733 0.514095 0
    outer loop
      vertex 3.4506 -2.30562 0
      vertex 3.65997 -1.9563 10
      vertex 3.65997 -1.9563 0
    endloop
  endfacet
  facet normal -0.857733 0.514095 0
    outer loop
      vertex 3.65997 -1.9563 10
      vertex 3.4506 -2.30562 0
      vertex 3.4506 -2.30562 10
    endloop
  endfacet
  facet normal -0.67156 0.74095 0
    outer loop
      vertex 2.93449 -2.93449 0
      vertex 2.63273 -3.20799 10
      vertex 2.93449 -2.93449 10
    endloop
  endfacet
  facet normal -0.67156 0.74095 0
    outer loop
      vertex 2.63273 -3.20799 10
      vertex 2.93449 -2.93449 0
      vertex 2.63273 -3.20799 0
    endloop
  endfacet
  facet normal -0.595713 0.803197 0
    outer loop
      vertex 2.63273 -3.20799 0
      vertex 2.30562 -3.4506 10
      vertex 2.63273 -3.20799 10
    endloop
  endfacet
  facet normal -0.595713 0.803197 0
    outer loop
      vertex 2.30562 -3.4506 10
      vertex 2.63273 -3.20799 0
      vertex 2.30562 -3.4506 0
    endloop
  endfacet
  facet normal 0.0490594 0.998796 -0
    outer loop
      vertex 0 -4.15 0
      vertex -0.406771 -4.13002 10
      vertex 0 -4.15 10
    endloop
  endfacet
  facet normal 0.0490594 0.998796 0
    outer loop
      vertex -0.406771 -4.13002 10
      vertex 0 -4.15 0
      vertex -0.406771 -4.13002 0
    endloop
  endfacet
  facet normal 0.74095 0.67156 0
    outer loop
      vertex -2.93449 -2.93449 10
      vertex -3.20799 -2.63273 0
      vertex -3.20799 -2.63273 10
    endloop
  endfacet
  facet normal 0.74095 0.67156 0
    outer loop
      vertex -3.20799 -2.63273 0
      vertex -2.93449 -2.93449 10
      vertex -2.93449 -2.93449 0
    endloop
  endfacet
  facet normal 0.941547 0.336881 0
    outer loop
      vertex -3.8341 -1.58814 10
      vertex -3.9713 -1.20468 0
      vertex -3.9713 -1.20468 10
    endloop
  endfacet
  facet normal 0.941547 0.336881 0
    outer loop
      vertex -3.9713 -1.20468 0
      vertex -3.8341 -1.58814 10
      vertex -3.8341 -1.58814 0
    endloop
  endfacet
  facet normal 0.989176 0.146736 0
    outer loop
      vertex -4.07026 -0.809625 10
      vertex -4.13002 -0.406771 0
      vertex -4.13002 -0.406771 10
    endloop
  endfacet
  facet normal 0.989176 0.146736 0
    outer loop
      vertex -4.13002 -0.406771 0
      vertex -4.07026 -0.809625 10
      vertex -4.07026 -0.809625 0
    endloop
  endfacet
  facet normal -0.242989 0.970029 0
    outer loop
      vertex 1.20468 -3.9713 0
      vertex 0.809625 -4.07026 10
      vertex 1.20468 -3.9713 10
    endloop
  endfacet
  facet normal -0.242989 0.970029 0
    outer loop
      vertex 0.809625 -4.07026 10
      vertex 1.20468 -3.9713 0
      vertex 0.809625 -4.07026 0
    endloop
  endfacet
  facet normal -0.146736 0.989176 0
    outer loop
      vertex 0.809625 -4.07026 0
      vertex 0.406771 -4.13002 10
      vertex 0.809625 -4.07026 10
    endloop
  endfacet
  facet normal -0.146736 0.989176 0
    outer loop
      vertex 0.406771 -4.13002 10
      vertex 0.809625 -4.07026 0
      vertex 0.406771 -4.13002 0
    endloop
  endfacet
  facet normal 0.242989 0.970029 -0
    outer loop
      vertex -0.809625 -4.07026 0
      vertex -1.20468 -3.9713 10
      vertex -0.809625 -4.07026 10
    endloop
  endfacet
  facet normal 0.242989 0.970029 0
    outer loop
      vertex -1.20468 -3.9713 10
      vertex -0.809625 -4.07026 0
      vertex -1.20468 -3.9713 0
    endloop
  endfacet
  facet normal 0.67156 0.74095 -0
    outer loop
      vertex -2.63273 -3.20799 0
      vertex -2.93449 -2.93449 10
      vertex -2.63273 -3.20799 10
    endloop
  endfacet
  facet normal 0.67156 0.74095 0
    outer loop
      vertex -2.93449 -2.93449 10
      vertex -2.63273 -3.20799 0
      vertex -2.93449 -2.93449 0
    endloop
  endfacet
  facet normal 0.514095 0.857733 -0
    outer loop
      vertex -1.9563 -3.65997 0
      vertex -2.30562 -3.4506 10
      vertex -1.9563 -3.65997 10
    endloop
  endfacet
  facet normal 0.514095 0.857733 0
    outer loop
      vertex -2.30562 -3.4506 10
      vertex -1.9563 -3.65997 0
      vertex -2.30562 -3.4506 0
    endloop
  endfacet
  facet normal 0.146736 0.989176 -0
    outer loop
      vertex -0.406771 -4.13002 0
      vertex -0.809625 -4.07026 10
      vertex -0.406771 -4.13002 10
    endloop
  endfacet
  facet normal 0.146736 0.989176 0
    outer loop
      vertex -0.809625 -4.07026 10
      vertex -0.406771 -4.13002 0
      vertex -0.809625 -4.07026 0
    endloop
  endfacet
  facet normal 0.595713 0.803197 -0
    outer loop
      vertex -2.30562 -3.4506 0
      vertex -2.63273 -3.20799 10
      vertex -2.30562 -3.4506 10
    endloop
  endfacet
  facet normal 0.595713 0.803197 0
    outer loop
      vertex -2.63273 -3.20799 10
      vertex -2.30562 -3.4506 0
      vertex -2.63273 -3.20799 0
    endloop
  endfacet
  facet normal 0.427562 0.903986 -0
    outer loop
      vertex -1.58814 -3.8341 0
      vertex -1.9563 -3.65997 10
      vertex -1.58814 -3.8341 10
    endloop
  endfacet
  facet normal 0.427562 0.903986 0
    outer loop
      vertex -1.9563 -3.65997 10
      vertex -1.58814 -3.8341 0
      vertex -1.9563 -3.65997 0
    endloop
  endfacet
  facet normal 0.336881 0.941547 -0
    outer loop
      vertex -1.20468 -3.9713 0
      vertex -1.58814 -3.8341 10
      vertex -1.20468 -3.9713 10
    endloop
  endfacet
  facet normal 0.336881 0.941547 0
    outer loop
      vertex -1.58814 -3.8341 10
      vertex -1.20468 -3.9713 0
      vertex -1.58814 -3.8341 0
    endloop
  endfacet
endsolid OpenSCAD_Model
