solid OpenSCAD_Model
  facet normal -0.997857 0.065428 0
    outer loop
      vertex -21.5 46.5 -27
      vertex -21.3973 48.0663 27
      vertex -21.3973 48.0663 -27
    endloop
  endfacet
  facet normal -0.997857 0.065428 0
    outer loop
      vertex -21.3973 48.0663 27
      vertex -21.5 46.5 -27
      vertex -21.5 46.5 27
    endloop
  endfacet
  facet normal 0.89686 0.442314 0
    outer loop
      vertex 20.5866 51.0922 27
      vertex 19.8923 52.5 -27
      vertex 19.8923 52.5 27
    endloop
  endfacet
  facet normal 0.89686 0.442314 0
    outer loop
      vertex 19.8923 52.5 -27
      vertex 20.5866 51.0922 27
      vertex 20.5866 51.0922 -27
    endloop
  endfacet
  facet normal -0.195075 0.980788 0
    outer loop
      vertex -11.0663 58.3973 -27
      vertex -12.6058 58.0911 27
      vertex -11.0663 58.3973 27
    endloop
  endfacet
  facet normal -0.195075 0.980788 0
    outer loop
      vertex -12.6058 58.0911 27
      vertex -11.0663 58.3973 -27
      vertex -12.6058 58.0911 -27
    endloop
  endfacet
  facet normal 0.997857 -0.065428 0
    outer loop
      vertex 21.3973 -48.0663 27
      vertex 21.5 -46.5 -27
      vertex 21.5 -46.5 27
    endloop
  endfacet
  facet normal 0.997857 -0.065428 0
    outer loop
      vertex 21.5 -46.5 -27
      vertex 21.3973 -48.0663 27
      vertex 21.3973 -48.0663 -27
    endloop
  endfacet
  facet normal -0.831452 -0.555597 0
    outer loop
      vertex -19.0202 -53.8051 -27
      vertex -19.8923 -52.5 27
      vertex -19.8923 -52.5 -27
    endloop
  endfacet
  facet normal -0.831452 -0.555597 0
    outer loop
      vertex -19.8923 -52.5 27
      vertex -19.0202 -53.8051 -27
      vertex -19.0202 -53.8051 27
    endloop
  endfacet
  facet normal -0.980788 0.195075 0
    outer loop
      vertex -21.3973 48.0663 -27
      vertex -21.0911 49.6058 27
      vertex -21.0911 49.6058 -27
    endloop
  endfacet
  facet normal -0.980788 0.195075 0
    outer loop
      vertex -21.0911 49.6058 27
      vertex -21.3973 48.0663 -27
      vertex -21.3973 48.0663 27
    endloop
  endfacet
  facet normal 0.321402 0.946943 -0
    outer loop
      vertex 14.0922 57.5866 -27
      vertex 12.6058 58.0911 27
      vertex 14.0922 57.5866 27
    endloop
  endfacet
  facet normal 0.321402 0.946943 0
    outer loop
      vertex 12.6058 58.0911 27
      vertex 14.0922 57.5866 -27
      vertex 12.6058 58.0911 -27
    endloop
  endfacet
  facet normal 0.751874 0.659307 0
    outer loop
      vertex 19.0202 53.8051 27
      vertex 17.9853 54.9853 -27
      vertex 17.9853 54.9853 27
    endloop
  endfacet
  facet normal 0.751874 0.659307 0
    outer loop
      vertex 17.9853 54.9853 -27
      vertex 19.0202 53.8051 27
      vertex 19.0202 53.8051 -27
    endloop
  endfacet
  facet normal 0.321402 -0.946943 0
    outer loop
      vertex 12.6058 -58.0911 -27
      vertex 14.0922 -57.5866 27
      vertex 12.6058 -58.0911 27
    endloop
  endfacet
  facet normal 0.321402 -0.946943 0
    outer loop
      vertex 14.0922 -57.5866 27
      vertex 12.6058 -58.0911 -27
      vertex 14.0922 -57.5866 -27
    endloop
  endfacet
  facet normal -0.980788 -0.195075 0
    outer loop
      vertex -21.0911 -49.6058 -27
      vertex -21.3973 -48.0663 27
      vertex -21.3973 -48.0663 -27
    endloop
  endfacet
  facet normal -0.980788 -0.195075 0
    outer loop
      vertex -21.3973 -48.0663 27
      vertex -21.0911 -49.6058 -27
      vertex -21.0911 -49.6058 27
    endloop
  endfacet
  facet normal -0.946943 -0.321402 0
    outer loop
      vertex -20.5866 -51.0922 -27
      vertex -21.0911 -49.6058 27
      vertex -21.0911 -49.6058 -27
    endloop
  endfacet
  facet normal -0.946943 -0.321402 0
    outer loop
      vertex -21.0911 -49.6058 27
      vertex -20.5866 -51.0922 -27
      vertex -20.5866 -51.0922 27
    endloop
  endfacet
  facet normal -0.751874 -0.659307 0
    outer loop
      vertex -17.9853 -54.9853 -27
      vertex -19.0202 -53.8051 27
      vertex -19.0202 -53.8051 -27
    endloop
  endfacet
  facet normal -0.751874 -0.659307 0
    outer loop
      vertex -19.0202 -53.8051 27
      vertex -17.9853 -54.9853 -27
      vertex -17.9853 -54.9853 27
    endloop
  endfacet
  facet normal -1 0 0
    outer loop
      vertex -21.5 -46.5 -27
      vertex -21.5 46.5 27
      vertex -21.5 46.5 -27
    endloop
  endfacet
  facet normal -1 -0 0
    outer loop
      vertex -21.5 46.5 27
      vertex -21.5 -46.5 -27
      vertex -21.5 -46.5 27
    endloop
  endfacet
  facet normal 0.659307 -0.751874 0
    outer loop
      vertex 16.8051 -56.0202 -27
      vertex 17.9853 -54.9853 27
      vertex 16.8051 -56.0202 27
    endloop
  endfacet
  facet normal 0.659307 -0.751874 0
    outer loop
      vertex 17.9853 -54.9853 27
      vertex 16.8051 -56.0202 -27
      vertex 17.9853 -54.9853 -27
    endloop
  endfacet
  facet normal 0 -1 0
    outer loop
      vertex -9.5 -58.5 -27
      vertex 9.5 -58.5 27
      vertex -9.5 -58.5 27
    endloop
  endfacet
  facet normal 0 -1 -0
    outer loop
      vertex 9.5 -58.5 27
      vertex -9.5 -58.5 -27
      vertex 9.5 -58.5 -27
    endloop
  endfacet
  facet normal -0.997857 -0.065428 0
    outer loop
      vertex -21.3973 -48.0663 -27
      vertex -21.5 -46.5 27
      vertex -21.5 -46.5 -27
    endloop
  endfacet
  facet normal -0.997857 -0.065428 0
    outer loop
      vertex -21.5 -46.5 27
      vertex -21.3973 -48.0663 -27
      vertex -21.3973 -48.0663 27
    endloop
  endfacet
  facet normal 0.442314 0.89686 -0
    outer loop
      vertex 15.5 56.8923 -27
      vertex 14.0922 57.5866 27
      vertex 15.5 56.8923 27
    endloop
  endfacet
  facet normal 0.442314 0.89686 0
    outer loop
      vertex 14.0922 57.5866 27
      vertex 15.5 56.8923 -27
      vertex 14.0922 57.5866 -27
    endloop
  endfacet
  facet normal -0.89686 -0.442314 0
    outer loop
      vertex -19.8923 -52.5 -27
      vertex -20.5866 -51.0922 27
      vertex -20.5866 -51.0922 -27
    endloop
  endfacet
  facet normal -0.89686 -0.442314 0
    outer loop
      vertex -20.5866 -51.0922 27
      vertex -19.8923 -52.5 -27
      vertex -19.8923 -52.5 27
    endloop
  endfacet
  facet normal -0.831452 0.555597 0
    outer loop
      vertex -19.8923 52.5 -27
      vertex -19.0202 53.8051 27
      vertex -19.0202 53.8051 -27
    endloop
  endfacet
  facet normal -0.831452 0.555597 0
    outer loop
      vertex -19.0202 53.8051 27
      vertex -19.8923 52.5 -27
      vertex -19.8923 52.5 27
    endloop
  endfacet
  facet normal -0.946943 0.321402 0
    outer loop
      vertex -21.0911 49.6058 -27
      vertex -20.5866 51.0922 27
      vertex -20.5866 51.0922 -27
    endloop
  endfacet
  facet normal -0.946943 0.321402 0
    outer loop
      vertex -20.5866 51.0922 27
      vertex -21.0911 49.6058 -27
      vertex -21.0911 49.6058 27
    endloop
  endfacet
  facet normal 0.555597 0.831452 -0
    outer loop
      vertex 16.8051 56.0202 -27
      vertex 15.5 56.8923 27
      vertex 16.8051 56.0202 27
    endloop
  endfacet
  facet normal 0.555597 0.831452 0
    outer loop
      vertex 15.5 56.8923 27
      vertex 16.8051 56.0202 -27
      vertex 15.5 56.8923 -27
    endloop
  endfacet
  facet normal 0.065428 0.997857 -0
    outer loop
      vertex 11.0663 58.3973 -27
      vertex 9.5 58.5 27
      vertex 11.0663 58.3973 27
    endloop
  endfacet
  facet normal 0.065428 0.997857 0
    outer loop
      vertex 9.5 58.5 27
      vertex 11.0663 58.3973 -27
      vertex 9.5 58.5 -27
    endloop
  endfacet
  facet normal 0.946943 -0.321402 0
    outer loop
      vertex 20.5866 -51.0922 27
      vertex 21.0911 -49.6058 -27
      vertex 21.0911 -49.6058 27
    endloop
  endfacet
  facet normal 0.946943 -0.321402 0
    outer loop
      vertex 21.0911 -49.6058 -27
      vertex 20.5866 -51.0922 27
      vertex 20.5866 -51.0922 -27
    endloop
  endfacet
  facet normal -0.659307 0.751874 0
    outer loop
      vertex -16.8051 56.0202 -27
      vertex -17.9853 54.9853 27
      vertex -16.8051 56.0202 27
    endloop
  endfacet
  facet normal -0.659307 0.751874 0
    outer loop
      vertex -17.9853 54.9853 27
      vertex -16.8051 56.0202 -27
      vertex -17.9853 54.9853 -27
    endloop
  endfacet
  facet normal 0.831452 0.555597 0
    outer loop
      vertex 19.8923 52.5 27
      vertex 19.0202 53.8051 -27
      vertex 19.0202 53.8051 27
    endloop
  endfacet
  facet normal 0.831452 0.555597 0
    outer loop
      vertex 19.0202 53.8051 -27
      vertex 19.8923 52.5 27
      vertex 19.8923 52.5 -27
    endloop
  endfacet
  facet normal 0.980788 0.195075 0
    outer loop
      vertex 21.3973 48.0663 27
      vertex 21.0911 49.6058 -27
      vertex 21.0911 49.6058 27
    endloop
  endfacet
  facet normal 0.980788 0.195075 0
    outer loop
      vertex 21.0911 49.6058 -27
      vertex 21.3973 48.0663 27
      vertex 21.3973 48.0663 -27
    endloop
  endfacet
  facet normal -0.89686 0.442314 0
    outer loop
      vertex -20.5866 51.0922 -27
      vertex -19.8923 52.5 27
      vertex -19.8923 52.5 -27
    endloop
  endfacet
  facet normal -0.89686 0.442314 0
    outer loop
      vertex -19.8923 52.5 27
      vertex -20.5866 51.0922 -27
      vertex -20.5866 51.0922 27
    endloop
  endfacet
  facet normal 0.751874 -0.659307 0
    outer loop
      vertex 17.9853 -54.9853 27
      vertex 19.0202 -53.8051 -27
      vertex 19.0202 -53.8051 27
    endloop
  endfacet
  facet normal 0.751874 -0.659307 0
    outer loop
      vertex 19.0202 -53.8051 -27
      vertex 17.9853 -54.9853 27
      vertex 17.9853 -54.9853 -27
    endloop
  endfacet
  facet normal 0 1 -0
    outer loop
      vertex 9.5 58.5 -27
      vertex -9.5 58.5 27
      vertex 9.5 58.5 27
    endloop
  endfacet
  facet normal 0 1 0
    outer loop
      vertex -9.5 58.5 27
      vertex 9.5 58.5 -27
      vertex -9.5 58.5 -27
    endloop
  endfacet
  facet normal 0.065428 -0.997857 0
    outer loop
      vertex 9.5 -58.5 -27
      vertex 11.0663 -58.3973 27
      vertex 9.5 -58.5 27
    endloop
  endfacet
  facet normal 0.065428 -0.997857 0
    outer loop
      vertex 11.0663 -58.3973 27
      vertex 9.5 -58.5 -27
      vertex 11.0663 -58.3973 -27
    endloop
  endfacet
  facet normal 0.997857 0.065428 0
    outer loop
      vertex 21.5 46.5 27
      vertex 21.3973 48.0663 -27
      vertex 21.3973 48.0663 27
    endloop
  endfacet
  facet normal 0.997857 0.065428 0
    outer loop
      vertex 21.3973 48.0663 -27
      vertex 21.5 46.5 27
      vertex 21.5 46.5 -27
    endloop
  endfacet
  facet normal 0.195075 -0.980788 0
    outer loop
      vertex 11.0663 -58.3973 -27
      vertex 12.6058 -58.0911 27
      vertex 11.0663 -58.3973 27
    endloop
  endfacet
  facet normal 0.195075 -0.980788 0
    outer loop
      vertex 12.6058 -58.0911 27
      vertex 11.0663 -58.3973 -27
      vertex 12.6058 -58.0911 -27
    endloop
  endfacet
  facet normal -0.555597 -0.831452 0
    outer loop
      vertex -16.8051 -56.0202 -27
      vertex -15.5 -56.8923 27
      vertex -16.8051 -56.0202 27
    endloop
  endfacet
  facet normal -0.555597 -0.831452 -0
    outer loop
      vertex -15.5 -56.8923 27
      vertex -16.8051 -56.0202 -27
      vertex -15.5 -56.8923 -27
    endloop
  endfacet
  facet normal 1 -0 0
    outer loop
      vertex 21.5 -46.5 27
      vertex 21.5 46.5 -27
      vertex 21.5 46.5 27
    endloop
  endfacet
  facet normal 1 0 0
    outer loop
      vertex 21.5 46.5 -27
      vertex 21.5 -46.5 27
      vertex 21.5 -46.5 -27
    endloop
  endfacet
  facet normal -0.321402 -0.946943 0
    outer loop
      vertex -14.0922 -57.5866 -27
      vertex -12.6058 -58.0911 27
      vertex -14.0922 -57.5866 27
    endloop
  endfacet
  facet normal -0.321402 -0.946943 -0
    outer loop
      vertex -12.6058 -58.0911 27
      vertex -14.0922 -57.5866 -27
      vertex -12.6058 -58.0911 -27
    endloop
  endfacet
  facet normal 0.442314 -0.89686 0
    outer loop
      vertex 14.0922 -57.5866 -27
      vertex 15.5 -56.8923 27
      vertex 14.0922 -57.5866 27
    endloop
  endfacet
  facet normal 0.442314 -0.89686 0
    outer loop
      vertex 15.5 -56.8923 27
      vertex 14.0922 -57.5866 -27
      vertex 15.5 -56.8923 -27
    endloop
  endfacet
  facet normal -0.442314 -0.89686 0
    outer loop
      vertex -15.5 -56.8923 -27
      vertex -14.0922 -57.5866 27
      vertex -15.5 -56.8923 27
    endloop
  endfacet
  facet normal -0.442314 -0.89686 -0
    outer loop
      vertex -14.0922 -57.5866 27
      vertex -15.5 -56.8923 -27
      vertex -14.0922 -57.5866 -27
    endloop
  endfacet
  facet normal -0.555597 0.831452 0
    outer loop
      vertex -15.5 56.8923 -27
      vertex -16.8051 56.0202 27
      vertex -15.5 56.8923 27
    endloop
  endfacet
  facet normal -0.555597 0.831452 0
    outer loop
      vertex -16.8051 56.0202 27
      vertex -15.5 56.8923 -27
      vertex -16.8051 56.0202 -27
    endloop
  endfacet
  facet normal 0.946943 0.321402 0
    outer loop
      vertex 21.0911 49.6058 27
      vertex 20.5866 51.0922 -27
      vertex 20.5866 51.0922 27
    endloop
  endfacet
  facet normal 0.946943 0.321402 0
    outer loop
      vertex 20.5866 51.0922 -27
      vertex 21.0911 49.6058 27
      vertex 21.0911 49.6058 -27
    endloop
  endfacet
  facet normal 0.831452 -0.555597 0
    outer loop
      vertex 19.0202 -53.8051 27
      vertex 19.8923 -52.5 -27
      vertex 19.8923 -52.5 27
    endloop
  endfacet
  facet normal 0.831452 -0.555597 0
    outer loop
      vertex 19.8923 -52.5 -27
      vertex 19.0202 -53.8051 27
      vertex 19.0202 -53.8051 -27
    endloop
  endfacet
  facet normal -0.442314 0.89686 0
    outer loop
      vertex -14.0922 57.5866 -27
      vertex -15.5 56.8923 27
      vertex -14.0922 57.5866 27
    endloop
  endfacet
  facet normal -0.442314 0.89686 0
    outer loop
      vertex -15.5 56.8923 27
      vertex -14.0922 57.5866 -27
      vertex -15.5 56.8923 -27
    endloop
  endfacet
  facet normal -0.321402 0.946943 0
    outer loop
      vertex -12.6058 58.0911 -27
      vertex -14.0922 57.5866 27
      vertex -12.6058 58.0911 27
    endloop
  endfacet
  facet normal -0.321402 0.946943 0
    outer loop
      vertex -14.0922 57.5866 27
      vertex -12.6058 58.0911 -27
      vertex -14.0922 57.5866 -27
    endloop
  endfacet
  facet normal 0.659307 0.751874 -0
    outer loop
      vertex 17.9853 54.9853 -27
      vertex 16.8051 56.0202 27
      vertex 17.9853 54.9853 27
    endloop
  endfacet
  facet normal 0.659307 0.751874 0
    outer loop
      vertex 16.8051 56.0202 27
      vertex 17.9853 54.9853 -27
      vertex 16.8051 56.0202 -27
    endloop
  endfacet
  facet normal 0.980788 -0.195075 0
    outer loop
      vertex 21.0911 -49.6058 27
      vertex 21.3973 -48.0663 -27
      vertex 21.3973 -48.0663 27
    endloop
  endfacet
  facet normal 0.980788 -0.195075 0
    outer loop
      vertex 21.3973 -48.0663 -27
      vertex 21.0911 -49.6058 27
      vertex 21.0911 -49.6058 -27
    endloop
  endfacet
  facet normal 0.195075 0.980788 -0
    outer loop
      vertex 12.6058 58.0911 -27
      vertex 11.0663 58.3973 27
      vertex 12.6058 58.0911 27
    endloop
  endfacet
  facet normal 0.195075 0.980788 0
    outer loop
      vertex 11.0663 58.3973 27
      vertex 12.6058 58.0911 -27
      vertex 11.0663 58.3973 -27
    endloop
  endfacet
  facet normal -0.195075 -0.980788 0
    outer loop
      vertex -12.6058 -58.0911 -27
      vertex -11.0663 -58.3973 27
      vertex -12.6058 -58.0911 27
    endloop
  endfacet
  facet normal -0.195075 -0.980788 -0
    outer loop
      vertex -11.0663 -58.3973 27
      vertex -12.6058 -58.0911 -27
      vertex -11.0663 -58.3973 -27
    endloop
  endfacet
  facet normal -0.659307 -0.751874 0
    outer loop
      vertex -17.9853 -54.9853 -27
      vertex -16.8051 -56.0202 27
      vertex -17.9853 -54.9853 27
    endloop
  endfacet
  facet normal -0.659307 -0.751874 -0
    outer loop
      vertex -16.8051 -56.0202 27
      vertex -17.9853 -54.9853 -27
      vertex -16.8051 -56.0202 -27
    endloop
  endfacet
  facet normal -0.751874 0.659307 0
    outer loop
      vertex -19.0202 53.8051 -27
      vertex -17.9853 54.9853 27
      vertex -17.9853 54.9853 -27
    endloop
  endfacet
  facet normal -0.751874 0.659307 0
    outer loop
      vertex -17.9853 54.9853 27
      vertex -19.0202 53.8051 -27
      vertex -19.0202 53.8051 27
    endloop
  endfacet
  facet normal 0.555597 -0.831452 0
    outer loop
      vertex 15.5 -56.8923 -27
      vertex 16.8051 -56.0202 27
      vertex 15.5 -56.8923 27
    endloop
  endfacet
  facet normal 0.555597 -0.831452 0
    outer loop
      vertex 16.8051 -56.0202 27
      vertex 15.5 -56.8923 -27
      vertex 16.8051 -56.0202 -27
    endloop
  endfacet
  facet normal 0.89686 -0.442314 0
    outer loop
      vertex 19.8923 -52.5 27
      vertex 20.5866 -51.0922 -27
      vertex 20.5866 -51.0922 27
    endloop
  endfacet
  facet normal 0.89686 -0.442314 0
    outer loop
      vertex 20.5866 -51.0922 -27
      vertex 19.8923 -52.5 27
      vertex 19.8923 -52.5 -27
    endloop
  endfacet
  facet normal -0.065428 -0.997857 0
    outer loop
      vertex -11.0663 -58.3973 -27
      vertex -9.5 -58.5 27
      vertex -11.0663 -58.3973 27
    endloop
  endfacet
  facet normal -0.065428 -0.997857 -0
    outer loop
      vertex -9.5 -58.5 27
      vertex -11.0663 -58.3973 -27
      vertex -9.5 -58.5 -27
    endloop
  endfacet
  facet normal 0 0 1
    outer loop
      vertex 9.5 58.5 27
      vertex 21.5 46.5 27
      vertex 21.3973 48.0663 27
    endloop
  endfacet
  facet normal 0 0 1
    outer loop
      vertex 21.5 46.5 27
      vertex -21.5 46.5 27
      vertex 21.5 -46.5 27
    endloop
  endfacet
  facet normal 0 0 1
    outer loop
      vertex 9.5 58.5 27
      vertex 21.3973 48.0663 27
      vertex 21.0911 49.6058 27
    endloop
  endfacet
  facet normal 0 0 1
    outer loop
      vertex -21.5 -46.5 27
      vertex 21.5 -46.5 27
      vertex -21.5 46.5 27
    endloop
  endfacet
  facet normal 0 0 1
    outer loop
      vertex 9.5 58.5 27
      vertex 21.0911 49.6058 27
      vertex 20.5866 51.0922 27
    endloop
  endfacet
  facet normal 0 -0 1
    outer loop
      vertex 9.5 -58.5 27
      vertex 21.5 -46.5 27
      vertex -21.5 -46.5 27
    endloop
  endfacet
  facet normal 0 0 1
    outer loop
      vertex 9.5 58.5 27
      vertex 20.5866 51.0922 27
      vertex 19.8923 52.5 27
    endloop
  endfacet
  facet normal 0 0 1
    outer loop
      vertex 21.5 -46.5 27
      vertex 9.5 -58.5 27
      vertex 21.3973 -48.0663 27
    endloop
  endfacet
  facet normal 0 0 1
    outer loop
      vertex 9.5 58.5 27
      vertex 19.8923 52.5 27
      vertex 19.0202 53.8051 27
    endloop
  endfacet
  facet normal 0 0 1
    outer loop
      vertex 21.3973 -48.0663 27
      vertex 9.5 -58.5 27
      vertex 21.0911 -49.6058 27
    endloop
  endfacet
  facet normal 0 0 1
    outer loop
      vertex 9.5 58.5 27
      vertex 19.0202 53.8051 27
      vertex 17.9853 54.9853 27
    endloop
  endfacet
  facet normal 0 0 1
    outer loop
      vertex 21.0911 -49.6058 27
      vertex 9.5 -58.5 27
      vertex 20.5866 -51.0922 27
    endloop
  endfacet
  facet normal 0 0 1
    outer loop
      vertex 9.5 58.5 27
      vertex 17.9853 54.9853 27
      vertex 16.8051 56.0202 27
    endloop
  endfacet
  facet normal 0 0 1
    outer loop
      vertex 20.5866 -51.0922 27
      vertex 9.5 -58.5 27
      vertex 19.8923 -52.5 27
    endloop
  endfacet
  facet normal 0 0 1
    outer loop
      vertex 9.5 58.5 27
      vertex 16.8051 56.0202 27
      vertex 15.5 56.8923 27
    endloop
  endfacet
  facet normal 0 0 1
    outer loop
      vertex 19.8923 -52.5 27
      vertex 9.5 -58.5 27
      vertex 19.0202 -53.8051 27
    endloop
  endfacet
  facet normal 0 0 1
    outer loop
      vertex 9.5 58.5 27
      vertex 15.5 56.8923 27
      vertex 14.0922 57.5866 27
    endloop
  endfacet
  facet normal 0 0 1
    outer loop
      vertex 19.0202 -53.8051 27
      vertex 9.5 -58.5 27
      vertex 17.9853 -54.9853 27
    endloop
  endfacet
  facet normal 0 0 1
    outer loop
      vertex 9.5 58.5 27
      vertex 14.0922 57.5866 27
      vertex 12.6058 58.0911 27
    endloop
  endfacet
  facet normal 0 0 1
    outer loop
      vertex 17.9853 -54.9853 27
      vertex 9.5 -58.5 27
      vertex 16.8051 -56.0202 27
    endloop
  endfacet
  facet normal 0 0 1
    outer loop
      vertex 9.5 58.5 27
      vertex 12.6058 58.0911 27
      vertex 11.0663 58.3973 27
    endloop
  endfacet
  facet normal 0 0 1
    outer loop
      vertex 16.8051 -56.0202 27
      vertex 9.5 -58.5 27
      vertex 15.5 -56.8923 27
    endloop
  endfacet
  facet normal 0 0 1
    outer loop
      vertex 21.5 46.5 27
      vertex 9.5 58.5 27
      vertex -21.5 46.5 27
    endloop
  endfacet
  facet normal 0 0 1
    outer loop
      vertex 15.5 -56.8923 27
      vertex 9.5 -58.5 27
      vertex 14.0922 -57.5866 27
    endloop
  endfacet
  facet normal 0 0 1
    outer loop
      vertex -21.5 46.5 27
      vertex 9.5 58.5 27
      vertex -9.5 58.5 27
    endloop
  endfacet
  facet normal 0 0 1
    outer loop
      vertex 14.0922 -57.5866 27
      vertex 9.5 -58.5 27
      vertex 12.6058 -58.0911 27
    endloop
  endfacet
  facet normal 0 0 1
    outer loop
      vertex -21.5 46.5 27
      vertex -9.5 58.5 27
      vertex -11.0663 58.3973 27
    endloop
  endfacet
  facet normal 0 0 1
    outer loop
      vertex 12.6058 -58.0911 27
      vertex 9.5 -58.5 27
      vertex 11.0663 -58.3973 27
    endloop
  endfacet
  facet normal 0 0 1
    outer loop
      vertex -21.5 46.5 27
      vertex -11.0663 58.3973 27
      vertex -12.6058 58.0911 27
    endloop
  endfacet
  facet normal 0 0 1
    outer loop
      vertex 9.5 -58.5 27
      vertex -21.5 -46.5 27
      vertex -9.5 -58.5 27
    endloop
  endfacet
  facet normal 0 0 1
    outer loop
      vertex -21.5 46.5 27
      vertex -12.6058 58.0911 27
      vertex -14.0922 57.5866 27
    endloop
  endfacet
  facet normal 0 0 1
    outer loop
      vertex -9.5 -58.5 27
      vertex -21.5 -46.5 27
      vertex -11.0663 -58.3973 27
    endloop
  endfacet
  facet normal 0 0 1
    outer loop
      vertex -21.5 46.5 27
      vertex -14.0922 57.5866 27
      vertex -15.5 56.8923 27
    endloop
  endfacet
  facet normal 0 0 1
    outer loop
      vertex -11.0663 -58.3973 27
      vertex -21.5 -46.5 27
      vertex -12.6058 -58.0911 27
    endloop
  endfacet
  facet normal 0 0 1
    outer loop
      vertex -21.5 46.5 27
      vertex -15.5 56.8923 27
      vertex -16.8051 56.0202 27
    endloop
  endfacet
  facet normal 0 0 1
    outer loop
      vertex -12.6058 -58.0911 27
      vertex -21.5 -46.5 27
      vertex -14.0922 -57.5866 27
    endloop
  endfacet
  facet normal 0 0 1
    outer loop
      vertex -21.5 46.5 27
      vertex -16.8051 56.0202 27
      vertex -17.9853 54.9853 27
    endloop
  endfacet
  facet normal 0 0 1
    outer loop
      vertex -14.0922 -57.5866 27
      vertex -21.5 -46.5 27
      vertex -15.5 -56.8923 27
    endloop
  endfacet
  facet normal 0 0 1
    outer loop
      vertex -21.5 46.5 27
      vertex -17.9853 54.9853 27
      vertex -19.0202 53.8051 27
    endloop
  endfacet
  facet normal 0 0 1
    outer loop
      vertex -15.5 -56.8923 27
      vertex -21.5 -46.5 27
      vertex -16.8051 -56.0202 27
    endloop
  endfacet
  facet normal 0 0 1
    outer loop
      vertex -21.5 46.5 27
      vertex -19.0202 53.8051 27
      vertex -19.8923 52.5 27
    endloop
  endfacet
  facet normal 0 0 1
    outer loop
      vertex -16.8051 -56.0202 27
      vertex -21.5 -46.5 27
      vertex -17.9853 -54.9853 27
    endloop
  endfacet
  facet normal 0 0 1
    outer loop
      vertex -21.5 46.5 27
      vertex -19.8923 52.5 27
      vertex -20.5866 51.0922 27
    endloop
  endfacet
  facet normal 0 0 1
    outer loop
      vertex -17.9853 -54.9853 27
      vertex -21.5 -46.5 27
      vertex -19.0202 -53.8051 27
    endloop
  endfacet
  facet normal 0 0 1
    outer loop
      vertex -21.5 46.5 27
      vertex -20.5866 51.0922 27
      vertex -21.0911 49.6058 27
    endloop
  endfacet
  facet normal 0 0 1
    outer loop
      vertex -19.0202 -53.8051 27
      vertex -21.5 -46.5 27
      vertex -19.8923 -52.5 27
    endloop
  endfacet
  facet normal 0 0 1
    outer loop
      vertex -21.5 46.5 27
      vertex -21.0911 49.6058 27
      vertex -21.3973 48.0663 27
    endloop
  endfacet
  facet normal 0 0 1
    outer loop
      vertex -19.8923 -52.5 27
      vertex -21.5 -46.5 27
      vertex -20.5866 -51.0922 27
    endloop
  endfacet
  facet normal 0 0 1
    outer loop
      vertex -20.5866 -51.0922 27
      vertex -21.5 -46.5 27
      vertex -21.0911 -49.6058 27
    endloop
  endfacet
  facet normal 0 0 1
    outer loop
      vertex -21.0911 -49.6058 27
      vertex -21.5 -46.5 27
      vertex -21.3973 -48.0663 27
    endloop
  endfacet
  facet normal -0.065428 0.997857 0
    outer loop
      vertex -9.5 58.5 -27
      vertex -11.0663 58.3973 27
      vertex -9.5 58.5 27
    endloop
  endfacet
  facet normal -0.065428 0.997857 0
    outer loop
      vertex -11.0663 58.3973 27
      vertex -9.5 58.5 -27
      vertex -11.0663 58.3973 -27
    endloop
  endfacet
  facet normal 0 0 -1
    outer loop
      vertex 9.5 -58.5 -27
      vertex 21.5 -46.5 -27
      vertex 21.3973 -48.0663 -27
    endloop
  endfacet
  facet normal 0 0 -1
    outer loop
      vertex 21.5 -46.5 -27
      vertex -21.5 -46.5 -27
      vertex 21.5 46.5 -27
    endloop
  endfacet
  facet normal 0 0 -1
    outer loop
      vertex 9.5 -58.5 -27
      vertex 21.3973 -48.0663 -27
      vertex 21.0911 -49.6058 -27
    endloop
  endfacet
  facet normal 0 0 -1
    outer loop
      vertex -21.5 46.5 -27
      vertex 21.5 46.5 -27
      vertex -21.5 -46.5 -27
    endloop
  endfacet
  facet normal 0 0 -1
    outer loop
      vertex 9.5 -58.5 -27
      vertex 21.0911 -49.6058 -27
      vertex 20.5866 -51.0922 -27
    endloop
  endfacet
  facet normal 0 -0 -1
    outer loop
      vertex 9.5 58.5 -27
      vertex 21.5 46.5 -27
      vertex -21.5 46.5 -27
    endloop
  endfacet
  facet normal 0 0 -1
    outer loop
      vertex 9.5 -58.5 -27
      vertex 20.5866 -51.0922 -27
      vertex 19.8923 -52.5 -27
    endloop
  endfacet
  facet normal 0 0 -1
    outer loop
      vertex 21.5 46.5 -27
      vertex 9.5 58.5 -27
      vertex 21.3973 48.0663 -27
    endloop
  endfacet
  facet normal 0 0 -1
    outer loop
      vertex 9.5 -58.5 -27
      vertex 19.8923 -52.5 -27
      vertex 19.0202 -53.8051 -27
    endloop
  endfacet
  facet normal 0 0 -1
    outer loop
      vertex 21.3973 48.0663 -27
      vertex 9.5 58.5 -27
      vertex 21.0911 49.6058 -27
    endloop
  endfacet
  facet normal 0 0 -1
    outer loop
      vertex 9.5 -58.5 -27
      vertex 19.0202 -53.8051 -27
      vertex 17.9853 -54.9853 -27
    endloop
  endfacet
  facet normal 0 0 -1
    outer loop
      vertex 21.0911 49.6058 -27
      vertex 9.5 58.5 -27
      vertex 20.5866 51.0922 -27
    endloop
  endfacet
  facet normal 0 0 -1
    outer loop
      vertex 9.5 -58.5 -27
      vertex 17.9853 -54.9853 -27
      vertex 16.8051 -56.0202 -27
    endloop
  endfacet
  facet normal 0 0 -1
    outer loop
      vertex 20.5866 51.0922 -27
      vertex 9.5 58.5 -27
      vertex 19.8923 52.5 -27
    endloop
  endfacet
  facet normal 0 0 -1
    outer loop
      vertex 9.5 -58.5 -27
      vertex 16.8051 -56.0202 -27
      vertex 15.5 -56.8923 -27
    endloop
  endfacet
  facet normal 0 0 -1
    outer loop
      vertex 19.8923 52.5 -27
      vertex 9.5 58.5 -27
      vertex 19.0202 53.8051 -27
    endloop
  endfacet
  facet normal 0 0 -1
    outer loop
      vertex 9.5 -58.5 -27
      vertex 15.5 -56.8923 -27
      vertex 14.0922 -57.5866 -27
    endloop
  endfacet
  facet normal 0 0 -1
    outer loop
      vertex 19.0202 53.8051 -27
      vertex 9.5 58.5 -27
      vertex 17.9853 54.9853 -27
    endloop
  endfacet
  facet normal 0 0 -1
    outer loop
      vertex 9.5 -58.5 -27
      vertex 14.0922 -57.5866 -27
      vertex 12.6058 -58.0911 -27
    endloop
  endfacet
  facet normal 0 0 -1
    outer loop
      vertex 17.9853 54.9853 -27
      vertex 9.5 58.5 -27
      vertex 16.8051 56.0202 -27
    endloop
  endfacet
  facet normal 0 0 -1
    outer loop
      vertex 9.5 -58.5 -27
      vertex 12.6058 -58.0911 -27
      vertex 11.0663 -58.3973 -27
    endloop
  endfacet
  facet normal 0 0 -1
    outer loop
      vertex 16.8051 56.0202 -27
      vertex 9.5 58.5 -27
      vertex 15.5 56.8923 -27
    endloop
  endfacet
  facet normal -0 0 -1
    outer loop
      vertex 21.5 -46.5 -27
      vertex 9.5 -58.5 -27
      vertex -21.5 -46.5 -27
    endloop
  endfacet
  facet normal 0 0 -1
    outer loop
      vertex 15.5 56.8923 -27
      vertex 9.5 58.5 -27
      vertex 14.0922 57.5866 -27
    endloop
  endfacet
  facet normal 0 0 -1
    outer loop
      vertex -21.5 -46.5 -27
      vertex 9.5 -58.5 -27
      vertex -9.5 -58.5 -27
    endloop
  endfacet
  facet normal 0 0 -1
    outer loop
      vertex 14.0922 57.5866 -27
      vertex 9.5 58.5 -27
      vertex 12.6058 58.0911 -27
    endloop
  endfacet
  facet normal 0 0 -1
    outer loop
      vertex -21.5 -46.5 -27
      vertex -9.5 -58.5 -27
      vertex -11.0663 -58.3973 -27
    endloop
  endfacet
  facet normal 0 0 -1
    outer loop
      vertex 12.6058 58.0911 -27
      vertex 9.5 58.5 -27
      vertex 11.0663 58.3973 -27
    endloop
  endfacet
  facet normal 0 0 -1
    outer loop
      vertex -21.5 -46.5 -27
      vertex -11.0663 -58.3973 -27
      vertex -12.6058 -58.0911 -27
    endloop
  endfacet
  facet normal -0 0 -1
    outer loop
      vertex 9.5 58.5 -27
      vertex -21.5 46.5 -27
      vertex -9.5 58.5 -27
    endloop
  endfacet
  facet normal 0 0 -1
    outer loop
      vertex -21.5 -46.5 -27
      vertex -12.6058 -58.0911 -27
      vertex -14.0922 -57.5866 -27
    endloop
  endfacet
  facet normal 0 0 -1
    outer loop
      vertex -9.5 58.5 -27
      vertex -21.5 46.5 -27
      vertex -11.0663 58.3973 -27
    endloop
  endfacet
  facet normal 0 0 -1
    outer loop
      vertex -21.5 -46.5 -27
      vertex -14.0922 -57.5866 -27
      vertex -15.5 -56.8923 -27
    endloop
  endfacet
  facet normal 0 0 -1
    outer loop
      vertex -11.0663 58.3973 -27
      vertex -21.5 46.5 -27
      vertex -12.6058 58.0911 -27
    endloop
  endfacet
  facet normal 0 0 -1
    outer loop
      vertex -21.5 -46.5 -27
      vertex -15.5 -56.8923 -27
      vertex -16.8051 -56.0202 -27
    endloop
  endfacet
  facet normal 0 0 -1
    outer loop
      vertex -12.6058 58.0911 -27
      vertex -21.5 46.5 -27
      vertex -14.0922 57.5866 -27
    endloop
  endfacet
  facet normal 0 0 -1
    outer loop
      vertex -21.5 -46.5 -27
      vertex -16.8051 -56.0202 -27
      vertex -17.9853 -54.9853 -27
    endloop
  endfacet
  facet normal 0 0 -1
    outer loop
      vertex -14.0922 57.5866 -27
      vertex -21.5 46.5 -27
      vertex -15.5 56.8923 -27
    endloop
  endfacet
  facet normal 0 0 -1
    outer loop
      vertex -21.5 -46.5 -27
      vertex -17.9853 -54.9853 -27
      vertex -19.0202 -53.8051 -27
    endloop
  endfacet
  facet normal 0 0 -1
    outer loop
      vertex -15.5 56.8923 -27
      vertex -21.5 46.5 -27
      vertex -16.8051 56.0202 -27
    endloop
  endfacet
  facet normal 0 0 -1
    outer loop
      vertex -21.5 -46.5 -27
      vertex -19.0202 -53.8051 -27
      vertex -19.8923 -52.5 -27
    endloop
  endfacet
  facet normal 0 0 -1
    outer loop
      vertex -16.8051 56.0202 -27
      vertex -21.5 46.5 -27
      vertex -17.9853 54.9853 -27
    endloop
  endfacet
  facet normal 0 0 -1
    outer loop
      vertex -21.5 -46.5 -27
      vertex -19.8923 -52.5 -27
      vertex -20.5866 -51.0922 -27
    endloop
  endfacet
  facet normal 0 0 -1
    outer loop
      vertex -17.9853 54.9853 -27
      vertex -21.5 46.5 -27
      vertex -19.0202 53.8051 -27
    endloop
  endfacet
  facet normal 0 0 -1
    outer loop
      vertex -21.5 -46.5 -27
      vertex -20.5866 -51.0922 -27
      vertex -21.0911 -49.6058 -27
    endloop
  endfacet
  facet normal 0 0 -1
    outer loop
      vertex -19.0202 53.8051 -27
      vertex -21.5 46.5 -27
      vertex -19.8923 52.5 -27
    endloop
  endfacet
  facet normal 0 0 -1
    outer loop
      vertex -21.5 -46.5 -27
      vertex -21.0911 -49.6058 -27
      vertex -21.3973 -48.0663 -27
    endloop
  endfacet
  facet normal 0 0 -1
    outer loop
      vertex -19.8923 52.5 -27
      vertex -21.5 46.5 -27
      vertex -20.5866 51.0922 -27
    endloop
  endfacet
  facet normal 0 0 -1
    outer loop
      vertex -20.5866 51.0922 -27
      vertex -21.5 46.5 -27
      vertex -21.0911 49.6058 -27
    endloop
  endfacet
  facet normal 0 0 -1
    outer loop
      vertex -21.0911 49.6058 -27
      vertex -21.5 46.5 -27
      vertex -21.3973 48.0663 -27
    endloop
  endfacet
  facet normal 1 0 0
    outer loop
      vertex 0 4.95722 14.2526
      vertex 0 4.95722 12.9474
      vertex 0 5 13.6
    endloop
  endfacet
  facet normal 1 0 0
    outer loop
      vertex 0 4.82963 14.8941
      vertex 0 4.95722 12.9474
      vertex 0 4.95722 14.2526
    endloop
  endfacet
  facet normal 1 0 0
    outer loop
      vertex 0 4.82963 14.8941
      vertex 0 4.82963 12.3059
      vertex 0 4.95722 12.9474
    endloop
  endfacet
  facet normal 1 0 0
    outer loop
      vertex 0 4.6194 15.5134
      vertex 0 4.82963 12.3059
      vertex 0 4.82963 14.8941
    endloop
  endfacet
  facet normal 1 0 0
    outer loop
      vertex 0 4.6194 15.5134
      vertex 0 4.6194 11.6866
      vertex 0 4.82963 12.3059
    endloop
  endfacet
  facet normal 1 0 0
    outer loop
      vertex 0 4.33013 16.1
      vertex 0 4.6194 11.6866
      vertex 0 4.6194 15.5134
    endloop
  endfacet
  facet normal 1 0 0
    outer loop
      vertex 0 4.33013 16.1
      vertex 0 4.33013 11.1
      vertex 0 4.6194 11.6866
    endloop
  endfacet
  facet normal 1 0 0
    outer loop
      vertex 0 3.96677 16.6438
      vertex 0 4.33013 11.1
      vertex 0 4.33013 16.1
    endloop
  endfacet
  facet normal 1 0 0
    outer loop
      vertex 0 3.96677 16.6438
      vertex 0 3.96677 10.5562
      vertex 0 4.33013 11.1
    endloop
  endfacet
  facet normal 1 0 0
    outer loop
      vertex 0 3.53553 17.1355
      vertex 0 3.96677 10.5562
      vertex 0 3.96677 16.6438
    endloop
  endfacet
  facet normal 1 0 0
    outer loop
      vertex 0 3.53553 17.1355
      vertex 0 3.53553 10.0645
      vertex 0 3.96677 10.5562
    endloop
  endfacet
  facet normal 1 0 0
    outer loop
      vertex 0 3.04381 17.5668
      vertex 0 3.53553 10.0645
      vertex 0 3.53553 17.1355
    endloop
  endfacet
  facet normal 1 0 0
    outer loop
      vertex 0 3.04381 17.5668
      vertex 0 3.04381 9.63323
      vertex 0 3.53553 10.0645
    endloop
  endfacet
  facet normal 1 0 0
    outer loop
      vertex 0 2.5 17.9301
      vertex 0 3.04381 9.63323
      vertex 0 3.04381 17.5668
    endloop
  endfacet
  facet normal 1 0 0
    outer loop
      vertex 0 2.5 17.9301
      vertex 0 2.5 9.26987
      vertex 0 3.04381 9.63323
    endloop
  endfacet
  facet normal 1 0 0
    outer loop
      vertex 0 1.91342 18.2194
      vertex 0 2.5 9.26987
      vertex 0 2.5 17.9301
    endloop
  endfacet
  facet normal 1 0 0
    outer loop
      vertex 0 1.91342 18.2194
      vertex 0 1.91342 8.9806
      vertex 0 2.5 9.26987
    endloop
  endfacet
  facet normal 1 0 0
    outer loop
      vertex 0 1.2941 18.4296
      vertex 0 1.91342 8.9806
      vertex 0 1.91342 18.2194
    endloop
  endfacet
  facet normal 1 0 0
    outer loop
      vertex 0 1.2941 18.4296
      vertex 0 1.2941 8.77037
      vertex 0 1.91342 8.9806
    endloop
  endfacet
  facet normal 1 0 0
    outer loop
      vertex 0 0.652631 18.5572
      vertex 0 1.2941 8.77037
      vertex 0 1.2941 18.4296
    endloop
  endfacet
  facet normal 1 0 0
    outer loop
      vertex 0 0.652631 18.5572
      vertex 0 0.652631 8.64278
      vertex 0 1.2941 8.77037
    endloop
  endfacet
  facet normal 1 0 0
    outer loop
      vertex 0 0 18.6
      vertex 0 0.652631 8.64278
      vertex 0 0.652631 18.5572
    endloop
  endfacet
  facet normal 1 0 0
    outer loop
      vertex 0 0 18.6
      vertex 0 0 8.6
      vertex 0 0.652631 8.64278
    endloop
  endfacet
  facet normal 1 -0 0
    outer loop
      vertex 0 -0.652631 18.5572
      vertex 0 0 8.6
      vertex 0 0 18.6
    endloop
  endfacet
  facet normal 1 0 0
    outer loop
      vertex 0 -0.652631 18.5572
      vertex 0 -0.652631 8.64278
      vertex 0 0 8.6
    endloop
  endfacet
  facet normal 1 -0 0
    outer loop
      vertex 0 -1.2941 18.4296
      vertex 0 -0.652631 8.64278
      vertex 0 -0.652631 18.5572
    endloop
  endfacet
  facet normal 1 0 0
    outer loop
      vertex 0 -1.2941 18.4296
      vertex 0 -1.2941 8.77037
      vertex 0 -0.652631 8.64278
    endloop
  endfacet
  facet normal 1 -0 0
    outer loop
      vertex 0 -1.91342 18.2194
      vertex 0 -1.2941 8.77037
      vertex 0 -1.2941 18.4296
    endloop
  endfacet
  facet normal 1 0 0
    outer loop
      vertex 0 -1.91342 18.2194
      vertex 0 -1.91342 8.9806
      vertex 0 -1.2941 8.77037
    endloop
  endfacet
  facet normal 1 -0 0
    outer loop
      vertex 0 -2.5 17.9301
      vertex 0 -1.91342 8.9806
      vertex 0 -1.91342 18.2194
    endloop
  endfacet
  facet normal 1 0 0
    outer loop
      vertex 0 -2.5 17.9301
      vertex 0 -2.5 9.26987
      vertex 0 -1.91342 8.9806
    endloop
  endfacet
  facet normal 1 -0 0
    outer loop
      vertex 0 -3.04381 17.5668
      vertex 0 -2.5 9.26987
      vertex 0 -2.5 17.9301
    endloop
  endfacet
  facet normal 1 0 0
    outer loop
      vertex 0 -3.04381 17.5668
      vertex 0 -3.04381 9.63323
      vertex 0 -2.5 9.26987
    endloop
  endfacet
  facet normal 1 -0 0
    outer loop
      vertex 0 -3.53553 17.1355
      vertex 0 -3.04381 9.63323
      vertex 0 -3.04381 17.5668
    endloop
  endfacet
  facet normal 1 0 0
    outer loop
      vertex 0 -3.53553 17.1355
      vertex 0 -3.53553 10.0645
      vertex 0 -3.04381 9.63323
    endloop
  endfacet
  facet normal 1 -0 0
    outer loop
      vertex 0 -3.96677 16.6438
      vertex 0 -3.53553 10.0645
      vertex 0 -3.53553 17.1355
    endloop
  endfacet
  facet normal 1 0 0
    outer loop
      vertex 0 -3.96677 16.6438
      vertex 0 -3.96677 10.5562
      vertex 0 -3.53553 10.0645
    endloop
  endfacet
  facet normal 1 -0 0
    outer loop
      vertex 0 -4.33013 16.1
      vertex 0 -3.96677 10.5562
      vertex 0 -3.96677 16.6438
    endloop
  endfacet
  facet normal 1 0 0
    outer loop
      vertex 0 -4.33013 16.1
      vertex 0 -4.33013 11.1
      vertex 0 -3.96677 10.5562
    endloop
  endfacet
  facet normal 1 -0 0
    outer loop
      vertex 0 -4.6194 15.5134
      vertex 0 -4.33013 11.1
      vertex 0 -4.33013 16.1
    endloop
  endfacet
  facet normal 1 0 0
    outer loop
      vertex 0 -4.6194 15.5134
      vertex 0 -4.6194 11.6866
      vertex 0 -4.33013 11.1
    endloop
  endfacet
  facet normal 1 -0 0
    outer loop
      vertex 0 -4.82963 14.8941
      vertex 0 -4.6194 11.6866
      vertex 0 -4.6194 15.5134
    endloop
  endfacet
  facet normal 1 0 0
    outer loop
      vertex 0 -4.82963 14.8941
      vertex 0 -4.82963 12.3059
      vertex 0 -4.6194 11.6866
    endloop
  endfacet
  facet normal 1 -0 0
    outer loop
      vertex 0 -4.95722 14.2526
      vertex 0 -4.82963 12.3059
      vertex 0 -4.82963 14.8941
    endloop
  endfacet
  facet normal 1 0 0
    outer loop
      vertex 0 -4.95722 14.2526
      vertex 0 -4.95722 12.9474
      vertex 0 -4.82963 12.3059
    endloop
  endfacet
  facet normal 1 0 -0
    outer loop
      vertex 0 -4.95722 12.9474
      vertex 0 -4.95722 14.2526
      vertex 0 -5 13.6
    endloop
  endfacet
  facet normal 0 0.751817 0.659372
    outer loop
      vertex 8 -3.53553 10.0645
      vertex 0 -3.96677 10.5562
      vertex 8 -3.96677 10.5562
    endloop
  endfacet
  facet normal 0 0.751817 0.659372
    outer loop
      vertex 0 -3.96677 10.5562
      vertex 8 -3.53553 10.0645
      vertex 0 -3.53553 10.0645
    endloop
  endfacet
  facet normal 0 -0.896878 0.442277
    outer loop
      vertex 0 4.33013 11.1
      vertex 8 4.6194 11.6866
      vertex 0 4.6194 11.6866
    endloop
  endfacet
  facet normal 0 -0.896878 0.442277
    outer loop
      vertex 8 4.6194 11.6866
      vertex 0 4.33013 11.1
      vertex 8 4.33013 11.1
    endloop
  endfacet
  facet normal 0 -0.0654097 0.997858
    outer loop
      vertex 0 0.652631 8.64278
      vertex 8 0 8.6
      vertex 8 0.652631 8.64278
    endloop
  endfacet
  facet normal 0 -0.0654097 0.997858
    outer loop
      vertex 8 0 8.6
      vertex 0 0.652631 8.64278
      vertex 0 0 8.6
    endloop
  endfacet
  facet normal 0 0.442327 -0.896854
    outer loop
      vertex 0 -2.5 17.9301
      vertex 8 -1.91342 18.2194
      vertex 8 -2.5 17.9301
    endloop
  endfacet
  facet normal 0 0.442327 -0.896854
    outer loop
      vertex 8 -1.91342 18.2194
      vertex 0 -2.5 17.9301
      vertex 0 -1.91342 18.2194
    endloop
  endfacet
  facet normal -0 0.321438 0.946931
    outer loop
      vertex 0 -1.2941 8.77037
      vertex 8 -1.91342 8.9806
      vertex 8 -1.2941 8.77037
    endloop
  endfacet
  facet normal 0 0.321438 0.946931
    outer loop
      vertex 8 -1.91342 8.9806
      vertex 0 -1.2941 8.77037
      vertex 0 -1.91342 8.9806
    endloop
  endfacet
  facet normal -0 0.0654097 0.997858
    outer loop
      vertex 0 0 8.6
      vertex 8 -0.652631 8.64278
      vertex 8 0 8.6
    endloop
  endfacet
  facet normal 0 0.0654097 0.997858
    outer loop
      vertex 8 -0.652631 8.64278
      vertex 0 0 8.6
      vertex 0 -0.652631 8.64278
    endloop
  endfacet
  facet normal 0 -0.0654401 -0.997856
    outer loop
      vertex 0 0 18.6
      vertex 8 0.652631 18.5572
      vertex 8 0 18.6
    endloop
  endfacet
  facet normal -0 -0.0654401 -0.997856
    outer loop
      vertex 8 0.652631 18.5572
      vertex 0 0 18.6
      vertex 0 0.652631 18.5572
    endloop
  endfacet
  facet normal 0 -0.997858 -0.0654128
    outer loop
      vertex 0 5 13.6
      vertex 8 4.95722 14.2526
      vertex 0 4.95722 14.2526
    endloop
  endfacet
  facet normal 0 -0.997858 -0.0654128
    outer loop
      vertex 8 4.95722 14.2526
      vertex 0 5 13.6
      vertex 8 5 13.6
    endloop
  endfacet
  facet normal 0 0.980789 0.195072
    outer loop
      vertex 8 -4.82963 12.3059
      vertex 0 -4.95722 12.9474
      vertex 8 -4.95722 12.9474
    endloop
  endfacet
  facet normal 0 0.980789 0.195072
    outer loop
      vertex 0 -4.95722 12.9474
      vertex 8 -4.82963 12.3059
      vertex 0 -4.82963 12.3059
    endloop
  endfacet
  facet normal 0 -0.896878 -0.442277
    outer loop
      vertex 0 4.6194 15.5134
      vertex 8 4.33013 16.1
      vertex 0 4.33013 16.1
    endloop
  endfacet
  facet normal 0 -0.896878 -0.442277
    outer loop
      vertex 8 4.33013 16.1
      vertex 0 4.6194 15.5134
      vertex 8 4.6194 15.5134
    endloop
  endfacet
  facet normal 0 -0.44229 0.896872
    outer loop
      vertex 0 2.5 9.26987
      vertex 8 1.91342 8.9806
      vertex 8 2.5 9.26987
    endloop
  endfacet
  facet normal 0 -0.44229 0.896872
    outer loop
      vertex 8 1.91342 8.9806
      vertex 0 2.5 9.26987
      vertex 0 1.91342 8.9806
    endloop
  endfacet
  facet normal -0 0.555568 0.831471
    outer loop
      vertex 0 -2.5 9.26987
      vertex 8 -3.04381 9.63323
      vertex 8 -2.5 9.26987
    endloop
  endfacet
  facet normal 0 0.555568 0.831471
    outer loop
      vertex 8 -3.04381 9.63323
      vertex 0 -2.5 9.26987
      vertex 0 -3.04381 9.63323
    endloop
  endfacet
  facet normal 0 0.946927 -0.321448
    outer loop
      vertex 8 -4.82963 14.8941
      vertex 0 -4.6194 15.5134
      vertex 8 -4.6194 15.5134
    endloop
  endfacet
  facet normal 0 0.946927 -0.321448
    outer loop
      vertex 0 -4.6194 15.5134
      vertex 8 -4.82963 14.8941
      vertex 0 -4.82963 14.8941
    endloop
  endfacet
  facet normal -0 0.44229 0.896872
    outer loop
      vertex 0 -1.91342 8.9806
      vertex 8 -2.5 9.26987
      vertex 8 -1.91342 8.9806
    endloop
  endfacet
  facet normal 0 0.44229 0.896872
    outer loop
      vertex 8 -2.5 9.26987
      vertex 0 -1.91342 8.9806
      vertex 0 -2.5 9.26987
    endloop
  endfacet
  facet normal 0 0.896878 0.442277
    outer loop
      vertex 8 -4.33013 11.1
      vertex 0 -4.6194 11.6866
      vertex 8 -4.6194 11.6866
    endloop
  endfacet
  facet normal 0 0.896878 0.442277
    outer loop
      vertex 0 -4.6194 11.6866
      vertex 8 -4.33013 11.1
      vertex 0 -4.33013 11.1
    endloop
  endfacet
  facet normal 0 -0.195081 0.980787
    outer loop
      vertex 0 1.2941 8.77037
      vertex 8 0.652631 8.64278
      vertex 8 1.2941 8.77037
    endloop
  endfacet
  facet normal 0 -0.195081 0.980787
    outer loop
      vertex 8 0.652631 8.64278
      vertex 0 1.2941 8.77037
      vertex 0 0.652631 8.64278
    endloop
  endfacet
  facet normal 0 0.946927 0.321448
    outer loop
      vertex 8 -4.6194 11.6866
      vertex 0 -4.82963 12.3059
      vertex 8 -4.82963 12.3059
    endloop
  endfacet
  facet normal 0 0.946927 0.321448
    outer loop
      vertex 0 -4.82963 12.3059
      vertex 8 -4.6194 11.6866
      vertex 0 -4.6194 11.6866
    endloop
  endfacet
  facet normal 0 -0.195096 -0.980784
    outer loop
      vertex 0 0.652631 18.5572
      vertex 8 1.2941 18.4296
      vertex 8 0.652631 18.5572
    endloop
  endfacet
  facet normal -0 -0.195096 -0.980784
    outer loop
      vertex 8 1.2941 18.4296
      vertex 0 0.652631 18.5572
      vertex 0 1.2941 18.4296
    endloop
  endfacet
  facet normal 0 0.997858 0.0654128
    outer loop
      vertex 8 -4.95722 12.9474
      vertex 0 -5 13.6
      vertex 8 -5 13.6
    endloop
  endfacet
  facet normal 0 0.997858 0.0654128
    outer loop
      vertex 0 -5 13.6
      vertex 8 -4.95722 12.9474
      vertex 0 -4.95722 12.9474
    endloop
  endfacet
  facet normal 0 0.980789 -0.195072
    outer loop
      vertex 8 -4.95722 14.2526
      vertex 0 -4.82963 14.8941
      vertex 8 -4.82963 14.8941
    endloop
  endfacet
  facet normal 0 0.980789 -0.195072
    outer loop
      vertex 0 -4.82963 14.8941
      vertex 8 -4.95722 14.2526
      vertex 0 -4.95722 14.2526
    endloop
  endfacet
  facet normal 0 0.831466 0.555575
    outer loop
      vertex 8 -3.96677 10.5562
      vertex 0 -4.33013 11.1
      vertex 8 -4.33013 11.1
    endloop
  endfacet
  facet normal 0 0.831466 0.555575
    outer loop
      vertex 0 -4.33013 11.1
      vertex 8 -3.96677 10.5562
      vertex 0 -3.96677 10.5562
    endloop
  endfacet
  facet normal 0 -0.659409 -0.751784
    outer loop
      vertex 0 3.04381 17.5668
      vertex 8 3.53553 17.1355
      vertex 8 3.04381 17.5668
    endloop
  endfacet
  facet normal -0 -0.659409 -0.751784
    outer loop
      vertex 8 3.53553 17.1355
      vertex 0 3.04381 17.5668
      vertex 0 3.53553 17.1355
    endloop
  endfacet
  facet normal 0 -0.751817 -0.659372
    outer loop
      vertex 0 3.96677 16.6438
      vertex 8 3.53553 17.1355
      vertex 0 3.53553 17.1355
    endloop
  endfacet
  facet normal 0 -0.751817 -0.659372
    outer loop
      vertex 8 3.53553 17.1355
      vertex 0 3.96677 16.6438
      vertex 8 3.96677 16.6438
    endloop
  endfacet
  facet normal -0 0.659383 0.751807
    outer loop
      vertex 0 -3.04381 9.63323
      vertex 8 -3.53553 10.0645
      vertex 8 -3.04381 9.63323
    endloop
  endfacet
  facet normal 0 0.659383 0.751807
    outer loop
      vertex 8 -3.53553 10.0645
      vertex 0 -3.04381 9.63323
      vertex 0 -3.53553 10.0645
    endloop
  endfacet
  facet normal 0 -0.555568 0.831471
    outer loop
      vertex 0 3.04381 9.63323
      vertex 8 2.5 9.26987
      vertex 8 3.04381 9.63323
    endloop
  endfacet
  facet normal 0 -0.555568 0.831471
    outer loop
      vertex 8 2.5 9.26987
      vertex 0 3.04381 9.63323
      vertex 0 2.5 9.26987
    endloop
  endfacet
  facet normal 0 -0.751817 0.659372
    outer loop
      vertex 0 3.53553 10.0645
      vertex 8 3.96677 10.5562
      vertex 0 3.96677 10.5562
    endloop
  endfacet
  facet normal 0 -0.751817 0.659372
    outer loop
      vertex 8 3.96677 10.5562
      vertex 0 3.53553 10.0645
      vertex 8 3.53553 10.0645
    endloop
  endfacet
  facet normal 0 -0.831466 0.555575
    outer loop
      vertex 0 3.96677 10.5562
      vertex 8 4.33013 11.1
      vertex 0 4.33013 11.1
    endloop
  endfacet
  facet normal 0 -0.831466 0.555575
    outer loop
      vertex 8 4.33013 11.1
      vertex 0 3.96677 10.5562
      vertex 8 3.96677 10.5562
    endloop
  endfacet
  facet normal -0 0.195081 0.980787
    outer loop
      vertex 0 -0.652631 8.64278
      vertex 8 -1.2941 8.77037
      vertex 8 -0.652631 8.64278
    endloop
  endfacet
  facet normal 0 0.195081 0.980787
    outer loop
      vertex 8 -1.2941 8.77037
      vertex 0 -0.652631 8.64278
      vertex 0 -1.2941 8.77037
    endloop
  endfacet
  facet normal 0 0.659409 -0.751784
    outer loop
      vertex 0 -3.53553 17.1355
      vertex 8 -3.04381 17.5668
      vertex 8 -3.53553 17.1355
    endloop
  endfacet
  facet normal 0 0.659409 -0.751784
    outer loop
      vertex 8 -3.04381 17.5668
      vertex 0 -3.53553 17.1355
      vertex 0 -3.04381 17.5668
    endloop
  endfacet
  facet normal 0 -0.980789 0.195072
    outer loop
      vertex 0 4.82963 12.3059
      vertex 8 4.95722 12.9474
      vertex 0 4.95722 12.9474
    endloop
  endfacet
  facet normal 0 -0.980789 0.195072
    outer loop
      vertex 8 4.95722 12.9474
      vertex 0 4.82963 12.3059
      vertex 8 4.82963 12.3059
    endloop
  endfacet
  facet normal 0 -0.980789 -0.195072
    outer loop
      vertex 0 4.95722 14.2526
      vertex 8 4.82963 14.8941
      vertex 0 4.82963 14.8941
    endloop
  endfacet
  facet normal 0 -0.980789 -0.195072
    outer loop
      vertex 8 4.82963 14.8941
      vertex 0 4.95722 14.2526
      vertex 8 4.95722 14.2526
    endloop
  endfacet
  facet normal 0 -0.946927 0.321448
    outer loop
      vertex 0 4.6194 11.6866
      vertex 8 4.82963 12.3059
      vertex 0 4.82963 12.3059
    endloop
  endfacet
  facet normal 0 -0.946927 0.321448
    outer loop
      vertex 8 4.82963 12.3059
      vertex 0 4.6194 11.6866
      vertex 8 4.6194 11.6866
    endloop
  endfacet
  facet normal 0 0.321397 -0.946944
    outer loop
      vertex 0 -1.91342 18.2194
      vertex 8 -1.2941 18.4296
      vertex 8 -1.91342 18.2194
    endloop
  endfacet
  facet normal 0 0.321397 -0.946944
    outer loop
      vertex 8 -1.2941 18.4296
      vertex 0 -1.91342 18.2194
      vertex 0 -1.2941 18.4296
    endloop
  endfacet
  facet normal 0 0.195096 -0.980784
    outer loop
      vertex 0 -1.2941 18.4296
      vertex 8 -0.652631 18.5572
      vertex 8 -1.2941 18.4296
    endloop
  endfacet
  facet normal 0 0.195096 -0.980784
    outer loop
      vertex 8 -0.652631 18.5572
      vertex 0 -1.2941 18.4296
      vertex 0 -0.652631 18.5572
    endloop
  endfacet
  facet normal 0 -0.831466 -0.555575
    outer loop
      vertex 0 4.33013 16.1
      vertex 8 3.96677 16.6438
      vertex 0 3.96677 16.6438
    endloop
  endfacet
  facet normal 0 -0.831466 -0.555575
    outer loop
      vertex 8 3.96677 16.6438
      vertex 0 4.33013 16.1
      vertex 8 4.33013 16.1
    endloop
  endfacet
  facet normal 0 0.555504 -0.831514
    outer loop
      vertex 0 -3.04381 17.5668
      vertex 8 -2.5 17.9301
      vertex 8 -3.04381 17.5668
    endloop
  endfacet
  facet normal 0 0.555504 -0.831514
    outer loop
      vertex 8 -2.5 17.9301
      vertex 0 -3.04381 17.5668
      vertex 0 -2.5 17.9301
    endloop
  endfacet
  facet normal 0 -0.442327 -0.896854
    outer loop
      vertex 0 1.91342 18.2194
      vertex 8 2.5 17.9301
      vertex 8 1.91342 18.2194
    endloop
  endfacet
  facet normal -0 -0.442327 -0.896854
    outer loop
      vertex 8 2.5 17.9301
      vertex 0 1.91342 18.2194
      vertex 0 2.5 17.9301
    endloop
  endfacet
  facet normal 0 -0.659383 0.751807
    outer loop
      vertex 0 3.53553 10.0645
      vertex 8 3.04381 9.63323
      vertex 8 3.53553 10.0645
    endloop
  endfacet
  facet normal 0 -0.659383 0.751807
    outer loop
      vertex 8 3.04381 9.63323
      vertex 0 3.53553 10.0645
      vertex 0 3.04381 9.63323
    endloop
  endfacet
  facet normal 0 -0.321397 -0.946944
    outer loop
      vertex 0 1.2941 18.4296
      vertex 8 1.91342 18.2194
      vertex 8 1.2941 18.4296
    endloop
  endfacet
  facet normal -0 -0.321397 -0.946944
    outer loop
      vertex 8 1.91342 18.2194
      vertex 0 1.2941 18.4296
      vertex 0 1.91342 18.2194
    endloop
  endfacet
  facet normal 0 -0.321438 0.946931
    outer loop
      vertex 0 1.91342 8.9806
      vertex 8 1.2941 8.77037
      vertex 8 1.91342 8.9806
    endloop
  endfacet
  facet normal 0 -0.321438 0.946931
    outer loop
      vertex 8 1.2941 8.77037
      vertex 0 1.91342 8.9806
      vertex 0 1.2941 8.77037
    endloop
  endfacet
  facet normal 0 -0.946927 -0.321448
    outer loop
      vertex 0 4.82963 14.8941
      vertex 8 4.6194 15.5134
      vertex 0 4.6194 15.5134
    endloop
  endfacet
  facet normal 0 -0.946927 -0.321448
    outer loop
      vertex 8 4.6194 15.5134
      vertex 0 4.82963 14.8941
      vertex 8 4.82963 14.8941
    endloop
  endfacet
  facet normal 0 -0.555504 -0.831514
    outer loop
      vertex 0 2.5 17.9301
      vertex 8 3.04381 17.5668
      vertex 8 2.5 17.9301
    endloop
  endfacet
  facet normal -0 -0.555504 -0.831514
    outer loop
      vertex 8 3.04381 17.5668
      vertex 0 2.5 17.9301
      vertex 0 3.04381 17.5668
    endloop
  endfacet
  facet normal 0 -0.997858 0.0654128
    outer loop
      vertex 0 4.95722 12.9474
      vertex 8 5 13.6
      vertex 0 5 13.6
    endloop
  endfacet
  facet normal 0 -0.997858 0.0654128
    outer loop
      vertex 8 5 13.6
      vertex 0 4.95722 12.9474
      vertex 8 4.95722 12.9474
    endloop
  endfacet
  facet normal 0 0.831466 -0.555575
    outer loop
      vertex 8 -4.33013 16.1
      vertex 0 -3.96677 16.6438
      vertex 8 -3.96677 16.6438
    endloop
  endfacet
  facet normal 0 0.831466 -0.555575
    outer loop
      vertex 0 -3.96677 16.6438
      vertex 8 -4.33013 16.1
      vertex 0 -4.33013 16.1
    endloop
  endfacet
  facet normal -1 0 0
    outer loop
      vertex 8 4.95722 12.9474
      vertex 8 4.95722 14.2526
      vertex 8 5 13.6
    endloop
  endfacet
  facet normal -1 0 0
    outer loop
      vertex 8 4.82963 12.3059
      vertex 8 4.95722 14.2526
      vertex 8 4.95722 12.9474
    endloop
  endfacet
  facet normal -1 0 0
    outer loop
      vertex 8 4.82963 12.3059
      vertex 8 4.82963 14.8941
      vertex 8 4.95722 14.2526
    endloop
  endfacet
  facet normal -1 0 0
    outer loop
      vertex 8 4.6194 11.6866
      vertex 8 4.82963 14.8941
      vertex 8 4.82963 12.3059
    endloop
  endfacet
  facet normal -1 0 0
    outer loop
      vertex 8 4.6194 11.6866
      vertex 8 4.6194 15.5134
      vertex 8 4.82963 14.8941
    endloop
  endfacet
  facet normal -1 0 0
    outer loop
      vertex 8 4.33013 11.1
      vertex 8 4.6194 15.5134
      vertex 8 4.6194 11.6866
    endloop
  endfacet
  facet normal -1 0 0
    outer loop
      vertex 8 4.33013 11.1
      vertex 8 4.33013 16.1
      vertex 8 4.6194 15.5134
    endloop
  endfacet
  facet normal -1 0 0
    outer loop
      vertex 8 3.96677 10.5562
      vertex 8 4.33013 16.1
      vertex 8 4.33013 11.1
    endloop
  endfacet
  facet normal -1 0 0
    outer loop
      vertex 8 3.96677 10.5562
      vertex 8 3.96677 16.6438
      vertex 8 4.33013 16.1
    endloop
  endfacet
  facet normal -1 0 0
    outer loop
      vertex 8 3.53553 10.0645
      vertex 8 3.96677 16.6438
      vertex 8 3.96677 10.5562
    endloop
  endfacet
  facet normal -1 0 0
    outer loop
      vertex 8 3.53553 10.0645
      vertex 8 3.53553 17.1355
      vertex 8 3.96677 16.6438
    endloop
  endfacet
  facet normal -1 0 0
    outer loop
      vertex 8 3.04381 9.63323
      vertex 8 3.53553 17.1355
      vertex 8 3.53553 10.0645
    endloop
  endfacet
  facet normal -1 0 0
    outer loop
      vertex 8 3.04381 9.63323
      vertex 8 3.04381 17.5668
      vertex 8 3.53553 17.1355
    endloop
  endfacet
  facet normal -1 0 0
    outer loop
      vertex 8 2.5 9.26987
      vertex 8 3.04381 17.5668
      vertex 8 3.04381 9.63323
    endloop
  endfacet
  facet normal -1 0 0
    outer loop
      vertex 8 2.5 9.26987
      vertex 8 2.5 17.9301
      vertex 8 3.04381 17.5668
    endloop
  endfacet
  facet normal -1 0 0
    outer loop
      vertex 8 1.91342 8.9806
      vertex 8 2.5 17.9301
      vertex 8 2.5 9.26987
    endloop
  endfacet
  facet normal -1 0 0
    outer loop
      vertex 8 1.91342 8.9806
      vertex 8 1.91342 18.2194
      vertex 8 2.5 17.9301
    endloop
  endfacet
  facet normal -1 0 0
    outer loop
      vertex 8 1.2941 8.77037
      vertex 8 1.91342 18.2194
      vertex 8 1.91342 8.9806
    endloop
  endfacet
  facet normal -1 0 0
    outer loop
      vertex 8 1.2941 8.77037
      vertex 8 1.2941 18.4296
      vertex 8 1.91342 18.2194
    endloop
  endfacet
  facet normal -1 0 0
    outer loop
      vertex 8 0.652631 8.64278
      vertex 8 1.2941 18.4296
      vertex 8 1.2941 8.77037
    endloop
  endfacet
  facet normal -1 0 0
    outer loop
      vertex 8 0.652631 8.64278
      vertex 8 0.652631 18.5572
      vertex 8 1.2941 18.4296
    endloop
  endfacet
  facet normal -1 0 0
    outer loop
      vertex 8 0 8.6
      vertex 8 0.652631 18.5572
      vertex 8 0.652631 8.64278
    endloop
  endfacet
  facet normal -1 0 0
    outer loop
      vertex 8 0 8.6
      vertex 8 0 18.6
      vertex 8 0.652631 18.5572
    endloop
  endfacet
  facet normal -1 0 0
    outer loop
      vertex 8 -0.652631 8.64278
      vertex 8 0 18.6
      vertex 8 0 8.6
    endloop
  endfacet
  facet normal -1 0 0
    outer loop
      vertex 8 -0.652631 8.64278
      vertex 8 -0.652631 18.5572
      vertex 8 0 18.6
    endloop
  endfacet
  facet normal -1 0 0
    outer loop
      vertex 8 -1.2941 8.77037
      vertex 8 -0.652631 18.5572
      vertex 8 -0.652631 8.64278
    endloop
  endfacet
  facet normal -1 0 0
    outer loop
      vertex 8 -1.2941 8.77037
      vertex 8 -1.2941 18.4296
      vertex 8 -0.652631 18.5572
    endloop
  endfacet
  facet normal -1 0 0
    outer loop
      vertex 8 -1.91342 8.9806
      vertex 8 -1.2941 18.4296
      vertex 8 -1.2941 8.77037
    endloop
  endfacet
  facet normal -1 0 0
    outer loop
      vertex 8 -1.91342 8.9806
      vertex 8 -1.91342 18.2194
      vertex 8 -1.2941 18.4296
    endloop
  endfacet
  facet normal -1 0 0
    outer loop
      vertex 8 -2.5 9.26987
      vertex 8 -1.91342 18.2194
      vertex 8 -1.91342 8.9806
    endloop
  endfacet
  facet normal -1 0 0
    outer loop
      vertex 8 -2.5 9.26987
      vertex 8 -2.5 17.9301
      vertex 8 -1.91342 18.2194
    endloop
  endfacet
  facet normal -1 0 0
    outer loop
      vertex 8 -3.04381 9.63323
      vertex 8 -2.5 17.9301
      vertex 8 -2.5 9.26987
    endloop
  endfacet
  facet normal -1 0 0
    outer loop
      vertex 8 -3.04381 9.63323
      vertex 8 -3.04381 17.5668
      vertex 8 -2.5 17.9301
    endloop
  endfacet
  facet normal -1 0 0
    outer loop
      vertex 8 -3.53553 10.0645
      vertex 8 -3.04381 17.5668
      vertex 8 -3.04381 9.63323
    endloop
  endfacet
  facet normal -1 0 0
    outer loop
      vertex 8 -3.53553 10.0645
      vertex 8 -3.53553 17.1355
      vertex 8 -3.04381 17.5668
    endloop
  endfacet
  facet normal -1 0 0
    outer loop
      vertex 8 -3.96677 10.5562
      vertex 8 -3.53553 17.1355
      vertex 8 -3.53553 10.0645
    endloop
  endfacet
  facet normal -1 0 0
    outer loop
      vertex 8 -3.96677 10.5562
      vertex 8 -3.96677 16.6438
      vertex 8 -3.53553 17.1355
    endloop
  endfacet
  facet normal -1 0 0
    outer loop
      vertex 8 -4.33013 11.1
      vertex 8 -3.96677 16.6438
      vertex 8 -3.96677 10.5562
    endloop
  endfacet
  facet normal -1 0 0
    outer loop
      vertex 8 -4.33013 11.1
      vertex 8 -4.33013 16.1
      vertex 8 -3.96677 16.6438
    endloop
  endfacet
  facet normal -1 0 0
    outer loop
      vertex 8 -4.6194 11.6866
      vertex 8 -4.33013 16.1
      vertex 8 -4.33013 11.1
    endloop
  endfacet
  facet normal -1 0 0
    outer loop
      vertex 8 -4.6194 11.6866
      vertex 8 -4.6194 15.5134
      vertex 8 -4.33013 16.1
    endloop
  endfacet
  facet normal -1 0 0
    outer loop
      vertex 8 -4.82963 12.3059
      vertex 8 -4.6194 15.5134
      vertex 8 -4.6194 11.6866
    endloop
  endfacet
  facet normal -1 0 0
    outer loop
      vertex 8 -4.82963 12.3059
      vertex 8 -4.82963 14.8941
      vertex 8 -4.6194 15.5134
    endloop
  endfacet
  facet normal -1 0 0
    outer loop
      vertex 8 -4.95722 12.9474
      vertex 8 -4.82963 14.8941
      vertex 8 -4.82963 12.3059
    endloop
  endfacet
  facet normal -1 0 0
    outer loop
      vertex 8 -4.95722 12.9474
      vertex 8 -4.95722 14.2526
      vertex 8 -4.82963 14.8941
    endloop
  endfacet
  facet normal -1 0 -0
    outer loop
      vertex 8 -4.95722 14.2526
      vertex 8 -4.95722 12.9474
      vertex 8 -5 13.6
    endloop
  endfacet
  facet normal 0 0.896878 -0.442277
    outer loop
      vertex 8 -4.6194 15.5134
      vertex 0 -4.33013 16.1
      vertex 8 -4.33013 16.1
    endloop
  endfacet
  facet normal 0 0.896878 -0.442277
    outer loop
      vertex 0 -4.33013 16.1
      vertex 8 -4.6194 15.5134
      vertex 0 -4.6194 15.5134
    endloop
  endfacet
  facet normal 0 0.0654401 -0.997856
    outer loop
      vertex 0 -0.652631 18.5572
      vertex 8 0 18.6
      vertex 8 -0.652631 18.5572
    endloop
  endfacet
  facet normal 0 0.0654401 -0.997856
    outer loop
      vertex 8 0 18.6
      vertex 0 -0.652631 18.5572
      vertex 0 0 18.6
    endloop
  endfacet
  facet normal 0 0.997858 -0.0654128
    outer loop
      vertex 8 -5 13.6
      vertex 0 -4.95722 14.2526
      vertex 8 -4.95722 14.2526
    endloop
  endfacet
  facet normal 0 0.997858 -0.0654128
    outer loop
      vertex 0 -4.95722 14.2526
      vertex 8 -5 13.6
      vertex 0 -5 13.6
    endloop
  endfacet
  facet normal 0 0.751817 -0.659372
    outer loop
      vertex 8 -3.96677 16.6438
      vertex 0 -3.53553 17.1355
      vertex 8 -3.53553 17.1355
    endloop
  endfacet
  facet normal 0 0.751817 -0.659372
    outer loop
      vertex 0 -3.53553 17.1355
      vertex 8 -3.96677 16.6438
      vertex 0 -3.96677 16.6438
    endloop
  endfacet
endsolid OpenSCAD_Model
